<?xml version="1.0" encoding="utf-8"?>
<!-- Generator: Adobe Illustrator 15.0.0, SVG Export Plug-In  -->
<!DOCTYPE svg PUBLIC "-//W3C//DTD SVG 1.1//EN" "http://www.w3.org/Graphics/SVG/1.1/DTD/svg11.dtd" [
	<!ENTITY ns_flows "http://ns.adobe.com/Flows/1.0/">
]>
<svg version="1.1"
	 xmlns="http://www.w3.org/2000/svg" xmlns:xlink="http://www.w3.org/1999/xlink" xmlns:a="http://ns.adobe.com/AdobeSVGViewerExtensions/3.0/"
	 x="0px" y="0px" width="30px" height="20px" viewBox="0 0 30 20" enable-background="new 0 0 30 20" xml:space="preserve">
<defs>
</defs>
<path fill-rule="evenodd" clip-rule="evenodd" fill="#9FD19D" d="M20.79,18.147v0.709c2.17,0.24,4.351,0.08,6.681,0.08v-0.869
	C25.37,18.167,22.73,18.147,20.79,18.147z M11.82,16.797v0.95c1.57-0.02,2.959,0.141,4.57,0.08c-0.041-0.359,0.08-0.87-0.091-1.109
	C14.92,16.847,13.33,16.776,11.82,16.797z M7.09,17.667c1.23,0.07,2.51,0.1,3.83,0.08c0.051-0.359-0.141-0.49-0.08-0.87
	c-1.369,0.04-2.49-0.17-3.83-0.159C6.98,17.087,7.16,17.257,7.09,17.667z M1.79,16.638c0.04,0.409,0.12,0.779,0.25,1.109
	c1.34-0.07,2.601-0.221,4.069-0.16c0.041-0.369-0.02-0.66-0.08-0.949H1.79z M11.74,15.847c1.57-0.02,3.09,0,4.56,0.08
	c-0.04-0.939-0.239-2.05-0.079-2.939h-4.73C11.63,13.888,11.721,14.827,11.74,15.847z M6.77,12.987
	c0.061,0.92,0.211,1.75,0.16,2.779c1.18,0.141,2.48,0.181,3.83,0.16c0.051-1.109-0.13-1.99-0.16-3.02
	C9.23,12.847,8.09,13.007,6.77,12.987z M1.63,12.747c0.14,0.92,0.06,2.061,0.08,3.1c1.5,0.03,2.91-0.029,4.319-0.08
	c-0.09-0.92-0.079-1.93-0.159-2.859C4.41,12.957,2.93,12.597,1.63,12.747z M24.13,11.877c0,1.851,0.13,3.58,0.33,5.229h1.87
	c-0.141-1.6-0.2-3.289-0.16-5.069C25.5,11.968,24.91,11.837,24.13,11.877z M21.109,11.957c0.101,1.649,0.091,3.399,0.091,5.149h2.2
	c-0.141-1.68-0.311-3.34-0.25-5.229C22.38,11.817,21.84,11.978,21.109,11.957z M7.83,7.997c-0.52,0.69-0.88,1.55-1.471,1.98
	c-1.08,0.79-3.149-0.11-4.889,0.4c0.069,0.511,0.039,1.11,0.159,1.58c2.07-0.19,5.03,0.069,7.75,0c2.33-0.06,4.7,0.2,7.011,0.08
	c0.119,0.3,0.52,0.33,0.649,0.63c0.03,1.801,0.181,3.48,0.319,5.16c0.771-0.051,1.74,0.1,2.371-0.08c0.09-0.33,0.27-0.59,0.569-0.71
	c-0.18-0.95-0.04-2.08-0.079-3.181c-0.051-1.049-0.431-2.199,0.159-2.85c0.99-0.119,2.101-0.16,3.341-0.16
	c1.01,0,2.659-0.149,3.18,0.4c0.859,0.891-0.131,4.4,0.33,5.79c0.27,0.03,1.109,0.25,1.06,0.069c-0.06-2.199-0.39-4.51-0.25-6.659
	c-4.41-0.17-9.16,0.12-12.96-0.47c-1.49-1.75-2.66-3.81-3.99-5.71C10.12,5.307,8.74,6.767,7.83,7.997z M5.63,8.547
	c-0.19,0.27-0.569,0.59-0.489,0.95H5.87c0.69-1.51,1.88-3,2.93-4.12c0.41-0.43,0.87-0.78,1.229-1.19
	c0.341-0.39,0.511-1.49,1.141-1.43c0.32,0.04,1,1.37,1.141,1.59c1.149,1.8,2.149,3.44,3.34,4.92c0.399-0.1,0.879,0.14,1.06,0
	c-1.88-2.73-3.63-5.56-5.79-8.01C9.32,3.697,7.221,6.177,5.63,8.547z M13.37,2.757c4.53-0.66,9.569,0.34,14.101,0.16
	c1.139,2.17,1.799,4.81,2.529,7.38c-0.18,0.28-0.68,0.271-1.061,0.15c-0.039,2.71,0.311,5.04,0.33,7.7
	c-0.199,0.26-0.609,0.27-0.819,0.31c-0.07,0.58,0.06,0.899-0.08,1.351c-2.39,0.33-5.64,0.16-8.07,0
	c-0.229-0.33-0.45-0.681-0.569-1.11c-6.051,0.25-12.4-0.21-18.26-0.16c-1.221-1.74-0.511-5.37-0.9-7.931
	C0.46,10.317,0.05,10.317,0,9.977c0.42-2.21,0.35-4.89,0.9-6.98c2.18-0.39,5.33-0.26,7.74-0.16c0.67-0.71,1.31-1.86,1.879-2.61
	C11.311-0.843,12.76,2.187,13.37,2.757z"/>
</svg>
