<?xml version="1.0" encoding="utf-8"?>
<!-- Generator: Adobe Illustrator 15.0.0, SVG Export Plug-In  -->
<!DOCTYPE svg PUBLIC "-//W3C//DTD SVG 1.1//EN" "http://www.w3.org/Graphics/SVG/1.1/DTD/svg11.dtd" [
	<!ENTITY ns_flows "http://ns.adobe.com/Flows/1.0/">
]>
<svg version="1.1"
	 xmlns="http://www.w3.org/2000/svg" xmlns:xlink="http://www.w3.org/1999/xlink" xmlns:a="http://ns.adobe.com/AdobeSVGViewerExtensions/3.0/"
	 x="0px" y="0px" width="131px" height="207px" viewBox="0 0 131 207" enable-background="new 0 0 131 207" xml:space="preserve">
<defs>
</defs>
<path fill-rule="evenodd" clip-rule="evenodd" fill="#024B78" d="M75.819,9.21c-2.189-1.25-6.58-1.52-7.899-1.58
	c-4.3-0.18-9.17,0.44-13.81,3.27c-2.871,1.75-5.791,5.08-6.57,8.66c-0.34,1.6-0.141,2.85,0.41,4.29c0.26,0.7,0.109,0.98-1.95,1.66
	c-1.34,0.44-2.74,1.31-3.55,2.57c-1.82,2.85-2.25,5.62,0.42,8.47c0.41,0.44,1.52,1.42,1.6,2.04c0.16,1.1-1,3.48-1.359,4.4
	c-0.68,1.73-0.43,4.31-0.17,6.13c1.029,7.26,7.609,10.45,14.569,10.94c1.16,0.08,3.86,0.21,5.351-0.06
	c1.85-0.33,3.16-1.36,3.24,0.68c0.119,3.1-2.971,5.62-4.471,7.54c-2.9,3.73,6.04,2.41,8.551,0.99c2.34-1.32,2.949-1.91,4.909-4.1
	c1.04-1.17,2.979-2.92,4.2-3.92c1.57-1.28,1.029-1.22,2.859-0.39c1.23,0.56,6.59,3.93,11.69,3.43c6.431-0.64,12.25-2.09,16.2-7.42
	c0.35-0.47,2.47-4.26,2.82-4.8c0.75-1.16,0.85-1.94,2.68-2.21c3.42-0.51,7.01-1.46,9.311-3.22c2.08-1.59,4.01-4.15,5.43-8.06
	c2.59-7.1,0.039-17.11-7.68-19.73c-1.82-0.62-3.99-0.71-5.951-0.62c0.48-2.82,0.811-5.19-1.039-8.43
	c-0.83-1.46-2.471-3.04-3.78-4.12c-3.61-3-8.17-4.58-12.05-5.26c-3.86-0.68-9.801-0.43-14.01,1.04
	C83.88,2.07,77.19,4.72,75.819,9.21z"/>
<path fill-rule="evenodd" clip-rule="evenodd" fill="#FFFFFF" d="M104.17,4.03c2.05,1.03,4.75,2.33,6.37,4.01
	c1.859,1.95,2.85,4.44,3.12,7.27c0.149,1.53-1.101,4.25,0.44,4.56c1.33,0.26,4.439-1.88,9.25,1.91c3.35,2.65,4.549,8.95,4.34,12.33
	c-0.32,5.04-4.83,11.92-11.211,13.01c-0.369,0.06-3.699,0.77-4.619,0.91c-1.621,0.24-1.23,1.01-2.061,2.38
	c-1.279,2.12-2.48,4.8-4.25,6.36c-5.26,4.65-14.42,6.04-20.89,2.99c-1.091-0.52-3.39-2.17-4.47-2.25c-1.65-0.12-3.24,1.87-4.07,2.75
	c-1.439,1.53-3.061,3.42-4.75,4.72c-3.28,2.53-4.46,2.96-8.43,2.89c-0.74-0.12,1.379-2.22,1.68-2.62c0.73-0.95,3.54-4.06,2.68-6.69
	c-0.85-2.62-4.25-0.82-6.48-0.76c-2.699,0.06-4.129-0.19-6.06-0.56c-7.239-1.39-12.39-8.11-9.909-15.55
	c0.649-1.96,1.949-3.22,0.969-4.49c-1.619-2.09-2.84-2.49-3.1-5.59c-0.119-1.38,0.99-3.49,2.16-4.1c0.689-0.36,3.37-1.16,4.09-1.52
	c0.48-0.24,1.04-0.16,0.73-1.15c-0.5-1.63-0.99-2.43-0.881-3.93c0.091-1.2,0.73-2.87,1.301-4c1.25-2.5,3.9-4.27,6.16-5.51
	c3.34-1.82,10.09-2.82,15.22-1.43c1.28,0.35,3.649,1.97,4.45,1.61c1.1-0.61,0.43-4.37,8.939-8.12c3.09-1.36,7.91-1.63,10.791-1.57
	C97.739,1.92,103.479,3.69,104.17,4.03z"/>
<path fill-rule="evenodd" clip-rule="evenodd" fill="#1068AE" d="M18.12,94.16l40.369-2.11c0,0,4.641-45.44-20.569-42.7
	C7.239,52.68,18.12,94.16,18.12,94.16z"/>
<path fill-rule="evenodd" clip-rule="evenodd" fill="#F9E3BA" d="M20.86,109.93c-0.73-6.83,1.47-13.56,4.039-19.89
	c1.141-2.82,3.961-3.97,4.791-0.36c0.52,2.27,0.39,5.18,0.41,7.52c0.02,1.38,0.58,3.99,0.17,5.3
	C29.21,105.899,23.04,106.56,20.86,109.93z"/>
<path fill-rule="evenodd" clip-rule="evenodd" fill="#F9E3BA" d="M49.12,103.61c-0.07-2.83-0.689-6.08-1.131-8.91
	c-0.399-2.53-1.569-5.55-1.039-8.11c4.58-0.65,6.08,6.81,6.65,9.95c0.789,4.35,2.739,10.529,2.029,14.9
	C53.76,108.739,51,106.659,49.12,103.61z"/>
<path fill-rule="evenodd" clip-rule="evenodd" fill="#F9E3BA" d="M18.271,116.84c-1.431,0.31-3.65,0.8-3.99,2.62
	c-0.461,2.54,2.709,2.91,4.51,2.48c0.23-1.391-0.07-2.871-0.221-4.301"/>
<path fill-rule="evenodd" clip-rule="evenodd" fill="#F9E3BA" d="M56.94,122.521c-0.15-1.92-0.381-4.601,0.24-6.391
	c2.469,0.07,3.979,0.38,4.42,3.109c0.379,2.341-1.521,3.66-4,3.621"/>
<path fill-rule="evenodd" clip-rule="evenodd" fill="#024B78" d="M23.09,160c-0.81-1.399-0.38-4.021-0.399-5.72
	c-0.021-2.57-0.03-5.18-0.01-7.76c0.049-5.33-0.691-10.851,0.609-16.091c4.04,1.181,7.6,3.54,11.82,3.931
	c5.649,0.529,12.41,0.199,16.609-3.811c1.52,3.13,1.62,7.46,2.17,10.91c0.461,2.859,1.17,5.66,1.721,8.52
	c0.58,3.01,2.43,7.36,1.789,10.5c-0.489,2.42-3.93,4.82-5.89,6.121c-2.88,1.899-5.56,2.209-8.95,1.819
	c-4.97-0.58-9.83-2.31-14.479-4.101C26.229,163.61,23.08,162.659,23.09,160z"/>
<path fill-rule="evenodd" clip-rule="evenodd" fill="#F7EE80" d="M19.16,119.19c0,0,0.069-15.98,19.37-17.351
	c19.33-1.37,19.9,19.771,17.439,22.49c-2.46,2.71-7.76,12.13-21.9,10.34C19.94,132.88,19.271,124.09,19.16,119.19z"/>
<path fill-rule="evenodd" clip-rule="evenodd" fill="#FFFFFF" d="M15.979,164.71c-2.1-1.32-4.52-3.33-4.6-6.03
	c2.08-0.36,5.48,0.19,6.76,2.011c-0.26-0.67-1.1-1.65-0.9-2.391c0.311-1.15,2.181-1.449,3.15-1.25c1.58,0.311,3.01,3.02,4.36,4.33
	c0.5-1.061,0.79-3.859,2-4.32c1.63-0.619,3.851,2.42,4.739,3.381c1.25,1.33,2.421,2.319,3.511,3.75
	c-0.09-1.271-0.97-3.771-0.08-4.701c1.479-1.56,4.92,0.891,5.94,2.031c-0.03-1.531-0.211-5.99,1.649-6.49
	c2.19-0.601,3.729,3.619,5.14,4.74c0.92-1,1.261-3.301,2.42-3.861c0.961,0.721,1.91,1.881,2.201,3.07
	c0.189-1.42-1.24-4.59,0.209-5.68c1.521-1.13,4.23,1.359,5.03,2.49c1.89-1.58,5.25-7.37,8.421-6.21
	c2.989,1.09,1.209,5.39,0.889,7.39c1.861-0.66,2.94-2.779,5.141-2.68c0.471,1.4-1.311,3.59-2.01,4.67
	c-1.25,1.92-2.891,3.55-3.971,5.58c1.9-1.77,4.28-2.16,6.33-3.561c-0.14,0.83-0.39,1.75-0.449,2.59
	c-0.07,0.931,0.289,2.08,0.07,2.98c-0.32,1.301-1.16,2.52-1.511,3.85c1.21-0.209,2.351-0.91,3.49-1.229
	c0.489,1.87,1.59,3.69,0.84,5.55c-0.74,1.82-2.28,4.04-3.681,5.42c-0.819,0.811-1.92,1.32-2.629,2.221
	c1.569,0.59,4.56,0.24,5.17,2.279c-1.351,1.551-3.811,3.29-5.58,4.37c0.76,0.32,1.22,0.83,1.01,1.601
	c-0.4,1.49-3.189,1.43-4.32,1.479c2.221,0.41,3.42,3.87,3.49,5.86c0.04,1.16-0.109,2.74-1.42,2.939
	c-1.58,0.23-4.439-1.81-4.82-3.369c-0.63,1.68-0.98,4.869-3.359,4.93c-2.851,0.07-5.2-3.16-5.41-5.68
	c-0.92,1.299-1.57,4.899-3.32,5.34c-1.68-1.67-3.4-5.74-3.67-8.131c-1.09,3.771-1.59,7.57-3.93,10.871
	c-0.84-1.181-1.721-2.381-2.5-3.57c-1.61,2-2.36,5.609-4.99,2.68c-1.73-1.92-1.68-4.971-1.74-7.42c-0.869,2.01-5.05,5.449-7.26,5.55
	c-0.26-0.83-0.37-1.851-0.24-2.649c-0.529,3.539-2.779,4.359-5.99,4.719c-0.42-1.049-1-2.59-0.8-3.739
	c0.19-1.16,1.14-2.229,1.229-3.479c-1.439,0.439-2.869,0.84-4.399,0.84c-1.29,0-4.8,0.06-5.81-0.73c-1.03-0.8-0.98-2.689-0.44-3.84
	c0.96-2.07,3.67-2.33,5-3.939c-1.09-0.681-2.649-0.881-3.851-1.42c-1.939-0.871-2.379-1.641-3.6-3.23
	c-1.109-1.43-1.869-3.131,0.91-3.36c-0.9,0.24-4.01,1.601-4.46,0.31c-0.729-2.129,4.11-3.229,5.31-3.67
	c0.09-1.66-2.129-4.439-1.299-5.91c1.119-2.01,5.289,1.07,6.609,1.73c-0.88-2.189-2.68-4.27-3.95-6.29
	c-0.649-1.04-1.569-2.319-0.8-3.521c1.15-1.789,5.37-0.6,6.38,0.971"/>
<path fill-rule="evenodd" clip-rule="evenodd" fill="#FFFFFF" d="M32.489,150.64l-1.02-9.52c0,0,7.5-1.77,10.74-1.62
	c3.24,0.159,6.26,0.58,6.26,0.58l0.221,9.12L32.489,150.64z"/>
<path fill-rule="evenodd" clip-rule="evenodd" fill="#014C69" d="M20.55,203.55l0.35-0.029l0.19-0.381l0.24-0.02l0.51-0.76
	l0.229-0.021l0.301-0.5l0.24-0.03l0.189-0.369l0.24-0.021l0.3-0.511l0.229-0.02l0.311-0.5l0.57-0.18l0.09-0.24l0.24-0.029
	c0.4-0.281,0.15-0.34,0.9-0.44l0.01,0.12l0.119-0.02c-0.05,0.189-0.07,0.199-0.07,0.479l-0.239,0.03
	c-0.021,0.33-0.12,0.569-0.261,0.85l-0.219,0.141l0.029,0.35l-0.22,0.14l0.03,0.229l-0.75,0.781l0.02,0.119l-0.24,0.02
	c-0.039,0.371-0.17,0.521-0.52,0.641l0.02,0.23l-0.229,0.029c-0.19,0.42-0.33,0.381-0.64,0.65l-0.301,0.5l-0.24,0.029l-0.09,0.24
	c-0.59,0.461-1.619,0.53-2.65,0.62l-0.159-0.329l-0.12,0.01l-0.061-0.58l-0.119,0.01l-0.021-0.23l-0.12,0.01
	c-0.15-0.289-0.24-1.06-0.15-1.399l0.121-0.011l-0.021-0.229l0.11-0.01l-0.04-0.351l0.12-0.02l-0.021-0.23l0.11-0.01l-0.03-0.35
	l0.22-0.141l0.061-0.479l0.23-0.14l-0.031-0.23l0.221-0.14l-0.02-0.229l0.219-0.141l-0.029-0.23l0.23-0.14l-0.03-0.239l0.22-0.141
	l0.08-0.359l0.33-0.271l-0.03-0.229l0.64-0.65l0.08-0.37l0.24-0.021l-0.029-0.229c0.35-0.13,0.42-0.33,0.66-0.54l-0.021-0.12
	l0.81-0.2c0.23,0.311,0.44,0.28,0.561,0.77l0.109-0.01l0.021,0.121l-0.12,0.01l0.061,0.58c-0.371,0.279-0.301,0.39-0.511,0.76
	l-0.329,0.27l0.029,0.23l-0.33,0.27l0.03,0.23l-0.54,0.529l0.029,0.23l-0.219,0.141l0.02,0.229l-0.221,0.14l0.021,0.23l-0.22,0.14
	l-0.061,0.479l-0.23,0.141l-0.059,0.48C20.8,203,20.601,203.13,20.55,203.55z M35.58,206.84l-0.181-0.569l-0.119,0.02l-0.35-1.141
	l-0.121,0.01l-0.08-1.879l0.11-0.01l-0.021-0.23l0.121-0.01l-0.021-1.291l0.12-0.02L35,201.37l0.12-0.01l0.01-0.94l0.12-0.011
	l-0.05-0.469l0.119-0.011l-0.06-0.579l0.11-0.011l-0.02-0.239l0.119-0.011l-0.08-0.7l0.12-0.01l-0.04-0.35l0.12-0.01l-0.06-0.58
	l0.109-0.021l-0.029-0.351l0.109-0.01l0.051-0.709l0.219-0.141l0.07-0.48l0.43-0.39l0.091-0.25l0.47-0.05l-0.01-0.11
	c0.07-0.01,0.23,0.08,0.48,0.06c0.109,0.16,0.369,0.44,0.529,0.541c-0.01,0.26-0.09,0.24-0.09,0.25l0.07,0.689l-0.11,0.02
	l-0.069,0.471l-0.121,0.02l0.041,0.351l-0.121,0.01l-0.069,0.479l-0.11,0.011l0.061,0.579l-0.12,0.011l0.04,0.351l-0.12,0.01
	l0.05,0.47l-0.12,0.01l0.06,0.58l-0.109,0.021l0.061,0.58l-0.121,0.01l0.041,0.35l-0.121,0.01l0.061,0.58l-0.109,0.01l0.02,0.24
	l-0.12,0.01l0.05,0.461l-0.109,0.02l-0.01,1.061c-0.111,0.469-0.23,0.899-0.19,1.539l0.12-0.01l0.609-0.88l0.23-0.14
	c0.32-0.561,0.47-1.15,1.279-1.311c0.271,0.4,0.32,0.66,0.381,1.37c-0.211,0.229-0.07,0.271-0.18,0.49l-0.23,0.14l0.029,0.24
	l-0.119,0.01l0.029,0.23l-0.229,0.14l0.03,0.229l-0.221,0.141l0.021,0.24l-0.32,0.26c-0.2,0.35-0.09,0.48-0.53,0.65
	C37.229,206.95,36.13,206.899,35.58,206.84z M67.44,190.53c-0.021,0.3-0.061,0.52-0.021,0.939c0.33,0.1,0.511,0.16,0.649,0.52
	c0.32,0.051,0.391,0.16,0.621,0.301l0.02,0.109l0.35-0.029l0.01,0.109c0.25,0.15,0.4,0.24,0.74,0.28l0.03,0.229
	c0.58,0.061,1.37,0.74,1.56,1.261l0.23-0.021l0.08,0.7l0.109-0.021l0.091,0.82l-0.12,0.01l0.05,0.471l-0.12,0.01l0.04,0.35
	l-0.22,0.141l0.02,0.23l-0.22,0.149l-0.31,0.5l-0.23,0.021l-0.1,0.25l-0.57,0.17l0.01,0.119l-0.229,0.021l0.01,0.12
	c-0.22,0.119-1.26,0.359-1.64,0.279l-0.01-0.109l-0.59,0.061l-0.011-0.121l-0.229,0.021c-0.301-0.11-0.5-0.319-0.881-0.38
	c-0.09-0.45-0.33-0.67-0.47-1.131c0.341-0.229,0.19-0.239,0.8-0.309c0.32,0.299,0.66,0.159,1.211,0.229
	c0.039,0,0.049,0.149,0.25,0.09l-0.011-0.12c0.36-0.15,0.57-0.22,0.91-0.33c0.22-0.46,0.58-0.561,0.59-1.24l-0.38-0.189l-0.029-0.24
	l-0.5-0.3l-0.021-0.12l-0.229,0.029l-0.271-0.329l-0.601-0.05l-0.529-0.541l-0.49-0.069l-0.27-0.319l-0.23,0.02l-0.53-0.54
	l-0.37-0.08l-0.15-0.33l-0.25-0.101c-0.229-0.279-0.289-0.51-0.35-1.02l0.12-0.01l-0.17-0.46c0.101-0.07,0.32-0.39,0.32-0.39
	l1.29-0.131l0.02,0.12l0.6,0.06l0.141,0.221L67.44,190.53z M48.56,191.75l0.711-0.08c0.109,0.16,0.369,0.44,0.529,0.54
	c0.12,1.21-0.029,2.67,0.391,3.73l0.16,1.52l0.629,1.46c0.23,0.09,0.211,0.149,0.5,0.19l-0.01-0.121
	c0.27-0.279,0.301-0.629,0.48-0.989l0.23-0.14l-0.031-0.23l0.121-0.02l0.069-0.48l0.22-0.13l0.07-0.479l0.221-0.141l-0.021-0.24
	l0.22-0.14l0.07-0.479l0.22-0.141l0.07-0.48l0.22-0.129l0.07-0.48l0.22-0.141L54,193.78l0.81-0.2c0.19,0.38,0.24,1.06,0.291,1.62
	c-0.261,0.3-0.061,0.27-0.17,0.609l-0.121,0.01l0.03,0.24l-0.12,0.01l-0.07,0.48l-0.119,0.01l0.039,0.35l-0.119,0.011l-0.07,0.479
	l-0.109,0.01l-0.07,0.48l-0.12,0.01l0.03,0.23l-0.121,0.02l0.021,0.23l-0.12,0.01l0.03,0.23l-0.12,0.01l0.03,0.24l-0.12,0.01
	l-0.07,0.48l-0.22,0.14l0.021,0.229l-0.221,0.141l0.02,0.24l-0.219,0.14l-0.301,0.5c-0.18,0.149-0.27,0.03-0.449,0.28
	c-1.131,0.149-1.92,0.17-2.42-0.461l-0.111,0.011l-0.18-0.57l-0.119,0.011l-0.041-0.351l-0.119,0.01l-0.021-0.229l-0.12,0.01
	l-0.029-0.35l-0.121,0.02l-0.059-0.59l-0.121,0.01l-0.07-0.689l-0.119,0.01l-0.04-0.35l-0.12,0.01c-0.061-0.17,0.1-0.24,0.1-0.24
	c0-0.26-0.149-0.23-0.149-0.23l-0.19-1.859l-0.119,0.01l0.039-0.71l-0.109,0.01c-0.08-0.25,0.08-0.36,0.08-0.36l-0.15-1.399
	l0.12-0.011l0.05-0.6C48.29,192.04,48.46,191.899,48.56,191.75z M12.54,194.021c-0.08,0.43-0.391,0.67-0.6,1l-0.121,0.01
	c-0.31,0.56-0.25,1.08-0.049,1.77c0.27,0.07,0.649,0.061,1.069,0.01c0.2-0.22,0.61-0.18,0.91-0.33c0.819-0.399,1.72-0.83,2.76-0.75
	c-0.01,0.221-0.35,1.271-0.45,1.34l-0.229,0.021c-0.21,0.29-0.479,0.24-0.78,0.44l0.01,0.109l-0.459,0.17l0.01,0.11l-0.801,0.2
	l0.01,0.119c-0.819,0.351-2.129-0.02-2.729-0.08l-0.53-0.529l-0.119,0.01l-0.021-0.23l-0.25-0.09l-0.04-0.35
	c-0.15-0.3-0.5-0.91-0.391-1.49l0.111-0.01l-0.061-0.59l0.22-0.141l0.06-0.59l0.221-0.14c0.23-0.3,0.529-0.59,0.6-1
	c0.391-0.13,0.53-0.319,0.771-0.55l-0.011-0.12l0.451-0.16l0.199-0.38l0.57-0.17l0.3-0.51l1.79-1l0.92-0.211
	c0.32-0.139,1.15-0.529,1.74-0.42c0.359,0.08,0.79,0.301,1.22,0.351c0.13,0.271,0.2,0.71,0.24,1.149l-0.341,0.15l0.011,0.12
	l-0.931,0.101l0.011,0.109c-0.22,0.01-0.33-0.26-0.61-0.17l0.01,0.12L17,191.44l0.01,0.119l-0.819,0.08l0.01,0.12l-0.69,0.19
	l0.011,0.109l-0.23,0.03l0.01,0.11l-0.35,0.039l0.01,0.111l-0.23,0.029l0.01,0.12l-0.569,0.17l-0.2,0.37l-0.23,0.029l-0.09,0.24
	l-0.239,0.03l-0.091,0.24C13.08,193.78,12.86,193.909,12.54,194.021z M69.569,185.819c0.721-0.069,1.551-0.31,2.08-0.56L72,185.22
	l-0.011-0.109l0.351-0.041l-0.01-0.119l0.58-0.18l0.09-0.24l0.351-0.041l0.09-0.239l0.35-0.16l-0.02-0.11l0.359-0.039l-0.02-0.121
	l0.33-0.27l-0.03-0.35l-1.22-0.23l-0.59,0.061l-0.011-0.11c-0.38-0.08-0.97,0.16-1.159,0.229l-0.121,0.021l-0.01-0.12l-0.119,0.01
	l0.01,0.12l-0.351,0.03l0.011,0.12l-0.58,0.18l0.02,0.12c-0.33,0.18-0.689,0.189-0.96-0.02l-0.11,0.01l-0.039-0.35l-0.121,0.01
	l-0.02-0.23l-0.12,0.01c-0.069-0.189,0.09-0.22,0.09-0.25l-0.06-0.58l0.34-0.149l0.1-0.25l0.23-0.021l0.09-0.25l0.59-0.06
	l-0.01-0.12l0.35-0.029l-0.01-0.121c0.641-0.27,2.87-0.209,3.32-0.1l0.01,0.109l0.84,0.031l0.01,0.119l0.49,0.07l0.141,0.22
	l0.229-0.021l0.41,0.431l0.36,0.08l0.029,0.229c0.4,0.301,0.141,0.84,0.35,1.15l-0.119,0.01c-0.08,0.83-0.6,1.08-1.141,1.53
	l-0.1,0.25L75,185.5l-0.09,0.25l-0.24,0.021l0.021,0.119l-0.461,0.17l0.01,0.11l-0.689,0.19l0.01,0.119l-0.35,0.03l0.01,0.12
	l-0.24,0.029l0.01,0.111l-0.469,0.049l0.02,0.121l-0.359,0.029l0.01,0.12l-1.76,0.181l-0.011-0.121l-0.489-0.06
	c-0.08-0.149-0.141-0.239-0.271-0.33C69.7,186.29,69.7,186.271,69.569,185.819z M33.83,184.88l-0.229,0.029
	c-0.16,0.311-0.391,0.311-0.65,0.541l-0.94,1.27l-0.53,0.53l0.021,0.229l-0.229,0.021l-0.08,0.37l0.35-0.04
	c0.18-0.341,0.54-0.46,0.88-0.681l-0.021-0.109l0.36-0.04l0.091-0.25c0.31-0.229,0.85-0.42,1.369-0.49c0.15,0.12,0,0.05,0.25,0.091
	c0.07,0.67-0.029,1.029-0.08,1.539l-0.68,0.311l-0.189,0.369l-0.24,0.031l0.01,0.109l-0.23,0.029l0.01,0.111l-0.35,0.039
	l-0.199,0.37l-0.57,0.181l0.01,0.119l-0.23,0.021l-0.1,0.239l-0.23,0.031l0.011,0.119l-0.46,0.16l0.02,0.12l-0.35,0.03l0.01,0.119
	l-0.47,0.051l0.01,0.109l-1.31-0.1c-0.08-0.1-0.391-0.311-0.391-0.311l-0.15-1.399c0.301-0.271,0.201-0.54,0.381-0.86l0.64-0.66
	L29.319,187l0.951-1.04l-0.011-0.12l0.229-0.021c0.051-0.35,0.091-0.399,0.421-0.52c0.12-0.77,1.31-1.65,2.31-1.77
	c0.26,0.33,0.34,0.08,0.53,0.539l0.11-0.01l0.07,0.58C33.81,184.79,33.88,184.64,33.83,184.88z M43.45,182.72l0.96,3.439l0.12-0.01
	l0.31,0.67l0.12-0.01l-0.02-0.119c0.31-0.221,0.35-0.511,0.76-0.66c0.05-0.311,0.15-0.41,0.289-0.621l0.121-0.02l-0.021-0.23
	l0.431-0.399c0.199-0.25,0.569-0.3,1.029-0.34c0.09,0.181,0.141,0.271,0.18,0.569l0.121-0.01l0.01,0.121l0.01,0.109l-0.11,0.02
	l0.06,0.58l-0.119,0.01c-0.04,0.32-0.4,1.011-0.58,1.24l-0.33,0.271l0.029,0.229l-0.439,0.4l0.02,0.12l-0.239,0.021l0.01,0.119
	l-0.229,0.02l-0.09,0.25l-0.361,0.031l-0.09,0.25l-0.119,0.01l-0.11,0.01l0.011,0.119c-0.82-0.059-1.111-0.229-1.611-0.659
	l-0.25-0.091l-0.029-0.239l-0.109,0.021l-0.031-0.24l-0.119,0.01l-0.051-0.46l-0.109,0.01l-0.061-0.58l-0.119,0.011l-0.051-0.471
	l-0.119,0.01l-0.051-0.459l-0.119,0.01c-0.24-0.58-0.24-2.57-0.201-3.051c0.25-0.14,0.311-0.22,0.681-0.3
	C43,182.64,43.13,182.69,43.45,182.72z M78.31,170.39c-0.3,0.11-0.359,0.23-0.55,0.42l0.011,0.11l-0.23,0.03l-0.1,0.24l-0.461,0.17
	l-0.09,0.25l-0.24,0.02l-0.209,0.26l-0.23,0.02l0.01,0.121l-0.24,0.02l-0.09,0.25l-0.35,0.04l0.01,0.11l-0.46,0.17l0.011,0.119
	l-0.58,0.17l0.02,0.121l-0.359,0.039l0.02,0.11l-0.24,0.03l0.01,0.109l-0.35,0.041l0.01,0.119l-0.23,0.021l0.011,0.12l-0.7,0.189
	l0.02,0.12l-0.58,0.171l0.011,0.119c-0.32,0.2-0.56,0.28-0.9,0.45l0.011,0.11c-0.23,0.07-0.16-0.041-0.25-0.09l-0.24,0.029
	l-0.021-0.24c-0.329-0.05-0.271,0-0.39-0.31l0.119-0.011l-0.09-0.819c0.141-0.09,0.16-0.22,0.211-0.26l0.24-0.03l-0.011-0.109
	l0.351-0.041l-0.01-0.119l0.229-0.021l-0.011-0.12l0.24-0.02l-0.02-0.12l0.24-0.021l-0.01-0.119l0.35-0.041l1.02-0.459l0.2-0.371
	l0.58-0.18l-0.011-0.119l0.461-0.16l-0.01-0.121l0.229-0.02l-0.01-0.119l0.229-0.021c0.381-0.261,0.141-0.32,0.791-0.44
	c0.09-0.49,0.219-0.26,0.409-0.63l-0.94,0.091c-0.239,0.26-0.799,0.18-1.149,0.359l0.01,0.12l-0.239,0.021l0.02,0.119l-1.5,0.51
	l0.01,0.11l-0.46,0.17l0.021,0.12l-0.24,0.02l-0.09,0.25c-0.34,0.181-0.84,0-1.08-0.01l-0.19-0.689l0.12-0.01l-0.061-0.59
	c0.44-0.32,0.49-0.711,1.221-0.83c0.15,0.119,0.01,0.039,0.25,0.09l-0.02-0.23c0.34-0.12,0.239-0.22,0.319-0.279l0.479-0.041
	l-0.02-0.119l0.36-0.041l-0.011-0.109l0.351-0.04l-0.011-0.12l0.931-0.21l-0.021-0.12l0.59-0.061l-0.01-0.119l2.961-0.18
	c0.22,0.26,0.539,0.359,0.779,0.629l0.12-0.02l0.12,1.17C78.53,169.81,78.351,170.11,78.31,170.39z M26.66,173.229l0.03,0.24
	l0.229-0.029l0.011,0.119l0.77,0.51l0.02,0.24l0.51,0.301l0.141,0.22l0.24-0.03l0.27,0.33l0.23-0.02l0.149,0.22l0.11-0.011
	l0.05,0.461l-0.11,0.02l0.01,0.109l0.121-0.01c0.069,0.221-0.03,0.15-0.101,0.24c-0.239,0.36-0.44,0.27-0.8,0.211l-0.59,0.059
	l-0.01-0.119l-0.49-0.07l-0.27-0.32l-0.23,0.021l-0.4-0.431l-0.24,0.021l-0.27-0.319l-0.12,0.01l-0.149-0.34l-0.24,0.029l-0.4-0.43
	l-0.12,0.01l0.021,0.11c-0.12,0.149-0.051,0.01-0.1,0.25c0.27,0.25,0.159,0.68,0.35,1.03l0.119-0.021l0.021,0.24l0.12-0.011
	l0.02,0.23l0.121-0.01l0.029,0.23l0.24,0.09l0.039,0.35l0.121-0.01c0.189,0.199,0.17,0.25,0.51,0.3
	c0.199,0.62,0.609,0.56,0.82,1.101c0.39,0.059,0.609,0.299,0.89,0.5l0.14,0.219l0.23-0.029l0.1,0.939l-0.449,0.16l0.01,0.12
	l-0.721-0.05l-0.01-0.109l-0.47,0.049l-0.011-0.119l-0.239,0.02l-0.4-0.43l-0.36-0.08l-0.029-0.23l-0.24-0.09l-0.02-0.119
	l-0.371-0.201l-0.029-0.229l-0.5-0.3l-0.17-0.461l-0.12,0.011l-0.021-0.229l-0.119,0.01l-0.311-0.67l-0.119,0.01l-0.211-0.92
	l-0.25-0.1l-0.09-0.811l-0.119,0.01l-0.051-0.47l-0.109,0.021c-0.24-0.58-0.131-1.561-0.101-2l0.34-0.15l-0.01-0.12l0.229-0.03
	l-0.01-0.109c0.75-0.36,1.83,0.399,2.2,0.6l0.229-0.03l0.021,0.12C26.36,173.17,26.39,173.19,26.66,173.229z M42.101,167.739
	l0.029,0.24l0.23-0.029l0.16,0.34l0.379,0.199l0.021,0.23l0.25,0.1l0.04,0.351l0.109-0.021l0.041,0.351l0.119-0.011l0.041,0.351
	l0.109-0.01l0.051,0.47l0.119-0.01l0.061,0.58l0.119-0.01l0.09,0.819l0.111-0.01l0.069,1.76c-0.19,0.101-0.36,0.15-0.69,0.19
	l-0.01-0.12c-0.17,0.021,0.051,0.09-0.109,0.13l-0.721-0.04c-0.31-1.22-0.71-2.54-1.31-3.41l-0.021-0.229l-0.119,0.01
	c-0.271-0.37-0.32-0.62-0.9-0.62c-0.12,0.34-0.24,0.521-0.381,0.87l-0.119,0.01l0.04,0.35l-0.12,0.011l0.029,0.239L39.7,170.83
	l0.109,1.05l0.25,0.09c0.08,0.141-0.09,0-0.109,0.131l0.02,0.119l0.11-0.01l0.04,0.35l0.119-0.02l0.311,0.68l0.11-0.01l0.03,0.23
	l0.25,0.1c0.24,0.3,0.289,0.619,0.359,1.14l-0.119,0.011l0.01,0.119l-1.16,0.24l-0.271-0.33l-0.239,0.02l-0.82-0.979l-0.24-1.149
	l-0.109,0.01l-0.041-0.35l-0.119,0.01l-0.121-1.17l-0.119,0.02l-0.01-0.12L38.05,171l-0.109-1.05c0.08-0.37,0.31-0.68,0.359-1.1
	l0.34-0.16c0.12-0.82,1.26-1.33,2.35-1.42c0.261,0.25,0.301,0.039,0.611,0.17l0.01,0.119C41.81,167.67,41.83,167.7,42.101,167.739z
	 M11.66,171.601c0.159,0.379,0.17,0.199,0.409,0.43l0.111-0.021l0.029,0.24c0.3,0.04,0.2,0.04,0.37,0.19l0.12-0.011l0.029,0.24
	l0.11-0.021l0.021,0.121c0.289,0.199,0.199-0.15,0.39,0.31c0.489,0.09,0.399,0.3,0.66,0.64l0.11-0.01l0.029,0.24l0.25,0.09
	l0.12,1.16c-0.28,0.189-0.38,0.279-0.91,0.33l-0.01-0.11l-0.72-0.05c-0.45-0.79-1.2-1.391-1.87-1.93l-0.5-0.301l-0.03-0.23
	l-0.76-0.51l-0.24,0.021l-0.141-0.22l-0.699,0.07l-0.1,0.25l-0.11,0.01l-0.04,0.709l-0.12,0.011c-0.13,0.659,0.33,0.979,0.49,1.25
	l0.04,0.351l0.109-0.011l0.03,0.229l0.12-0.01l0.02,0.23l0.381,0.199l0.02,0.23l0.12-0.01c0.22,0.22,0.41,0.32,0.54,0.65
	c0.37,0.049,0.529,0.18,0.65,0.529l0.369,0.08l0.01,0.11l0.23-0.021l0.02,0.12l0.351-0.04l0.14,0.221l0.121-0.01l0.18,0.569
	l-0.121,0.01L12,178.05c0,0,0.22,0.03,0.14,0.221l-0.109,0.01c-0.1,0.709-1.221,0.629-2.061,0.68c-0.47-0.41-0.33-0.01-0.72-0.04
	l-0.011-0.12c-0.699-0.09-2.1,0.35-2.42,0.609L6.62,179.78l-0.23,0.029l-0.09,0.24l-0.24,0.02l0.01,0.121
	c-0.18,0.189-0.25,0.289-0.539,0.41c-0.11,0.709-0.74,0.989-0.75,1.85l0.119-0.021l0.031,0.351l0.639,0.41
	c0.33,0.26,0.511,0.039,0.961,0.14l0.01,0.11l0.47-0.051l0.021,0.12l1.279-0.13l0.021,0.109l1.3-0.01l-0.02-0.119l0.119-0.01
	l0.131,0.109c0.08,0.109,0.34,0.21,0.279,0.439l-0.109,0.01c-0.051,0.721-0.42,0.9-1.32,0.961l0.01,0.119l-0.47,0.041l-0.011-0.11
	l-1.639,0.17l-0.011-0.12l-0.58,0.061l-0.021-0.121l-0.35,0.041l-0.01-0.12c-0.32-0.091-0.689,0-0.96-0.13l-0.66-0.641l-0.38-0.199
	l-0.029-0.23l-0.111,0.01l-0.029-0.23l-0.109,0.011L3.3,182.95l-0.119,0.01l-0.041-0.35l-0.25-0.09l0.1-0.24l-0.119,0.01
	l-0.061-0.58l0.11-0.02l0.06-0.59l0.11-0.011c0.091-0.19,0.07-0.3,0.06-0.601l0.23-0.02c0.061-0.16,0.17-0.17,0.21-0.26
	c0.2-0.37,0.16-0.6,0.63-0.77l-0.029-0.23l0.34-0.16l0.199-0.37l0.451-0.17l0.1-0.239l0.229-0.021l-0.01-0.12l0.45-0.17l-0.01-0.109
	l0.35-0.041l-0.01-0.119l0.229-0.021l-0.01-0.12l0.59-0.061l-0.021-0.109c0.361-0.16,1.041-0.12,1.271-0.37
	c-0.319-0.21-0.47-0.54-0.69-0.87l-0.119,0.01L7.5,175.8l-0.25-0.09l-0.19-0.689l-0.119,0.01l-0.17-0.45l-0.121,0.01l-0.34-2.09
	c0.061-0.271,0.23-0.521,0.26-0.851l0.541-0.529L7.101,171c0.449-0.39,1.119-0.58,1.939-0.67c0.3,0.271,0.46,0.14,0.859,0.271
	l0.011,0.109l0.479,0.07l0.01,0.119l0.24-0.02l0.141,0.221l0.229-0.031C11.34,171.271,11.05,171.489,11.66,171.601z M60.44,172.47
	l0.029,0.35c-0.529,0.16-0.689,0.11-1.289,0.141c-0.07-0.35-0.261-0.85-0.141-1.29l0.12-0.011l-0.021-0.239l0.221-0.14l-0.03-0.23
	l0.22-0.26l0.061-0.48l0.229-0.14l0.07-0.479l0.22-0.141l0.15-0.84l0.119-0.02l-0.029-0.23l0.119-0.01l-0.059-0.59l0.119-0.01
	l0.051-0.601l0.119-0.011c0.01-0.239-0.08-0.139-0.14-0.219c-0.091-0.521-0.261-0.75-0.8-0.75c-0.23,0.33-0.68,0.43-0.99,0.699
	l-0.41,0.631l-0.24,0.029l-0.72,1.02l-0.33,0.271l0.021,0.229l-0.541,0.53l0.031,0.229l-0.221,0.141l-0.25,1.09l-0.109,0.01
	l0.189,0.69l1,0.49l0.05,0.47l-0.12,0.01l0.041,0.35c-0.32,0.111-0.771,0.521-1.141,0.471l-0.01-0.109l-0.59,0.06l-0.01-0.12
	c-0.361-0.04-0.4-0.09-0.521-0.42l-0.12,0.01l-0.21-0.8l-0.11,0.01l-0.06-0.59l-0.12,0.021c-0.29-0.711,0.189-1.881,0.35-2.281
	l0.07-0.479l0.33-0.271l-0.03-0.239l1.57-2.05l0.239-0.03l0.301-0.5l0.24-0.03l0.199-0.369l0.45-0.17l0.101-0.24L58.34,165
	l-0.01-0.11l0.47-0.05l0.09-0.25l1.76-0.3c0.391,0.46,1.021,0.25,1.291,0.93c0.149,0.1,0.479,0.6,0.449,0.9l-0.119,0.01l0.06,0.59
	l0.12-0.01l0.05,0.47l-0.12,0.011l0.15,0.34l-0.11,0.01l0.03,0.35l-0.11,0.01l0.04,0.471l-0.109,0.01l-0.051,0.721l-0.109,0.01
	l-0.07,0.479l-0.12,0.011l-0.069,0.479l-0.221,0.14l0.03,0.35l-0.22,0.141l-0.07,0.48l-0.221,0.14
	C60.91,171.8,61.01,172.26,60.44,172.47z M72.86,158.06l-0.24,0.021c-0.17,0.38-0.49,0.6-0.74,0.909c-0.55,0.67-1.1,1.66-2.18,1.881
	l-0.02-0.12l-0.471,0.05c-0.1-0.189-0.15-0.35-0.189-0.689l-0.121,0.02l-0.049-0.471l0.859-0.92l0.12-0.01l-0.021-0.24
	c0.311-0.119,0.26-0.06,0.311-0.389l0.24-0.021l0.3-0.511l0.12-0.01l-0.021-0.229l0.33-0.271l-0.03-0.24l0.33-0.27l-0.02-0.23
	l0.22-0.14l-0.01-0.12l0.22-0.14l-0.04-0.351l0.12-0.02l0.08-0.359l-0.471,0.049c-0.27,0.361-0.299,0.121-0.68,0.311l0.01,0.109
	l-0.35,0.041l0.01,0.119l-0.24,0.021l0.021,0.12l-0.239,0.02l-0.201,0.381l-0.35,0.039l0.01,0.11l-0.34,0.16l-0.1,0.239l-0.23,0.031
	l-0.09,0.239l-0.24,0.03l-0.31,0.5l-0.22,0.15l-0.08,0.359l-0.24,0.02l0.02,0.121c-0.14,0.129-0.219,0.109-0.33,0.27
	c-0.229-0.061-0.469-0.07-0.84-0.029l-0.149-0.341c-0.25-0.17-0.28-0.37-0.33-0.79l0.12-0.02l-0.03-0.35l0.22-0.141l-0.029-0.23
	l0.119-0.02c0.121-0.18,0.15-0.221,0.19-0.49l0.341-0.15l-0.011-0.119l0.229-0.021l0.101-0.25l0.229-0.03l0.101-0.24l0.46-0.17
	l0.09-0.25l0.68-0.299l0.101-0.25l0.569-0.181l-0.01-0.11l0.35-0.039l-0.01-0.121l0.24-0.02l-0.01-0.119l0.35-0.041l-0.01-0.109
	l0.35-0.041l-0.01-0.119l0.35-0.03l-0.01-0.12c0.91-0.39,2.59,0.04,2.801,0.54c0.149,0.13,0.32,0.94,0.25,1.271l-0.121,0.02
	c-0.079,0.33,0,0.68-0.139,0.96l-0.221,0.14l0.02,0.23l-0.219,0.15l0.02,0.229l-0.32,0.271
	C72.979,157.47,72.899,157.729,72.86,158.06z M15.12,159.659c0.199,0.451,0.05,0.15,0.39,0.32l0.021,0.121l0.229-0.031l0.14,0.221
	c0.42,0.23,0.711,0.22,0.91,0.74c0.43,0.06,0.41,0.26,0.44,0.779c-0.29,0.19-0.17,0.221-0.681,0.301
	c-0.34-0.221-0.389,0.14-0.83-0.03l-0.139-0.22l-0.24,0.02l-0.141-0.221l-0.23,0.031l-0.02-0.121l-0.23,0.031l-0.27-0.33l-0.24,0.02
	l-0.27-0.32l-0.48-0.07l-0.02-0.119c-0.439-0.19-0.73-0.36-1.34-0.33l0.02,0.119l-0.119,0.011c0.069,0.25,0.14,0.21,0.14,0.22
	l0.06,0.58l0.25,0.1l0.04,0.351l0.12-0.021l0.03,0.35l0.25,0.101l0.03,0.229l0.369,0.201l0.03,0.229l0.25,0.09l0.021,0.24
	l0.379,0.19l0.021,0.239l0.12-0.01l0.03,0.229l0.11-0.01l0.149,0.221l0.761,0.51l0.27,0.33c0.109,0.06,0.84,0.33,0.869,0.38
	l0.111,0.93c-0.441,0.31-0.361,0.39-1.141,0.47c-0.23-0.209-0.28-0.06-0.49-0.18l-0.15-0.22l-0.359-0.08l-0.01-0.12
	c-0.23-0.15-0.32-0.24-0.631-0.29c-0.109-0.31-0.18-0.25-0.289-0.56l-0.24,0.029c-0.1-0.26-0.131-0.279-0.28-0.449l-0.12,0.02
	l-0.17-0.46l-0.25-0.09l-0.02-0.24L12.03,164l-0.041-0.351l-0.369-0.199l-0.03-0.23l-0.12,0.01l-0.029-0.35l-0.121,0.01l-0.039-0.35
	l-0.12,0.02L11,162.101l-0.12,0.01l-0.05-0.461c-0.17-0.359-0.72-1.299-0.57-1.949l0.12-0.021l0.07-0.479
	c0.42-0.28,0.699-0.59,1.34-0.73l0.02,0.12c0.141,0.08,0.75,0.06,0.961,0.14l0.01,0.11l0.24-0.021l0.01,0.121l0.229-0.031
	l0.021,0.121L13.51,159l0.011,0.12l0.489,0.07l0.14,0.219l0.601,0.061l0.01,0.11L15.12,159.659z M31.94,160.399l0.24-0.02
	l0.159,0.46l0.25,0.09c0,0-0.04,0.74-0.021,0.94c-0.069,0.06-0.1,0.08-0.129,0.109c-0.021,0.041-0.041,0.07-0.08,0.15l-0.73-0.16
	c-0.08,0.08,0.061,0.17-0.1,0.131l-0.021-0.121l-0.229,0.03l-0.01-0.12c-0.181-0.09-0.221-0.06-0.48-0.07l-0.16-0.34l-0.12,0.021
	l-0.021-0.24l-0.119,0.021l-0.02-0.24l-0.25-0.09l-0.17-0.461l-0.25-0.09l-0.031-0.35l-0.25-0.09l-0.039-0.35l-0.121,0.01
	l-0.02-0.24l-0.119,0.02l-0.041-0.35l-0.369-0.199l-0.03-0.24c-0.06-0.061-0.16-0.07-0.261-0.201l-0.119,0.011l0.029,0.229
	c-0.119,0.16-0.119,0.86,0.01,1.181l0.111-0.011l0.02,0.121l-0.12,0.01l0.01,0.119l0.12-0.01l0.07,0.7l0.119-0.021l0.041,0.361
	l0.119-0.021l0.311,1.86l0.119-0.011c0.041,0.16-0.079-0.04-0.1,0.13l0.051,0.471c-0.201,0.09-0.36,0.149-0.701,0.189
	c-0.139-0.14-0.26-0.15-0.389-0.32l-0.111,0.01l-0.049-0.459l-0.381-0.2l-0.029-0.24l-0.11,0.021l-0.069-0.59l-0.111,0.01
	l-0.049-0.461l-0.121,0.011l-0.1-0.94l-0.119,0.021l-0.091-0.82l-0.11,0.011c-0.039-0.141,0.16-0.221,0.07-0.48l-0.119,0.01
	l-0.141-1.279c0.07-0.361,0.16-0.551,0.12-1.08c0.271-0.221,0.069-0.101,0.2-0.381l0.119-0.01l-0.029-0.23l0.34-0.16l0.1-0.239
	l1.041-0.229l0.27,0.33l0.24-0.031l0.529,0.541l0.25,0.09l0.311,0.68l0.24,0.09l0.029,0.24l0.12-0.02l0.021,0.24l0.26,0.209
	l0.029,0.23l0.24,0.09l0.03,0.24l0.12-0.01l0.029,0.35l0.121-0.02l0.029,0.239l0.11-0.01l0.04,0.351l0.25,0.09l0.04,0.35l0.11-0.01
	C31.89,160.101,31.88,160.14,31.94,160.399z M44.8,159.54l-0.59,0.061l-0.1,0.129l-0.01-0.109l-0.24,0.02l-0.01-0.119l-0.591,0.069
	l-0.01-0.12l-0.12,0.01l-0.09-0.82c0.199-0.26-0.051-0.67,0.01-1.059c0.12-0.701-0.1-1.421-0.22-2.111l-0.351,0.041l-0.31,0.5
	l-0.12,0.01l0.03,0.24l-0.22,0.14l0.02,0.229l-0.12,0.01l-0.05,0.601l-0.12,0.011l0.021,0.239l-0.11,0.011l0.11,1.049l0.229-0.02
	c0.07,0.26,0.05,0.311,0.17,0.45l0.12-0.011l0.02,0.24l0.25,0.09c0,0-0.049,0.621-0.029,0.83l-0.811,0.201l-0.01-0.111
	c-0.311-0.039-0.41-0.149-0.63-0.289l-0.01-0.12l-0.37-0.08c-0.04-0.16,0.029,0.021,0.109-0.13l-0.14-0.221l-0.36,0.03
	c-0.289-1.329-0.42-2.79,0.08-3.79l0.221-0.14l0.16-0.729l0.43-0.4c0.38-0.461,0.48-0.86,1.33-0.961l-0.01-0.119l0.83,0.029
	c0.229,0.271,0.459,0.221,0.76,0.4c0.27,0.16,0.4,0.7,0.58,1l0.119-0.01l0.301,1.74c0,0-0.15,0-0.09,0.25l0.119-0.01l-0.09,1.42
	l-0.119,0.02c-0.021,0.33,0.31,0.21,0.289,0.439l-0.119,0.011l-0.08,0.37l-0.121,0.01l0.011,0.12l0.12-0.021
	C44.851,159.239,44.8,159.271,44.8,159.54z M59.649,155.87l-0.949,0.1c-0.07-0.109-0.23-0.17-0.26-0.21l-0.03-0.351
	c-0.021-0.029-0.19-0.1-0.261-0.209c0.121-0.2-0.119-0.59,0-1.07l0.121-0.01l-0.021-0.23l0.11-0.01l-0.03-0.359l0.12-0.011
	l-0.03-0.229l0.12-0.01l-0.03-0.24l0.54-0.53l-0.02-0.229l0.34-0.16l0.619-0.891l0.24-0.029l-0.02-0.11
	c0.16-0.181,0.15-0.08,0.2-0.38c0.329-0.11,0.47-0.23,0.67-0.42l-0.011-0.121l0.461-0.17l0.09-0.239l0.24-0.03l-0.01-0.109
	l0.229-0.03l-0.011-0.12l0.471-0.051l-0.01-0.109l0.24-0.029l-0.021-0.111l0.36-0.039L63.09,149l0.46-0.16l-0.01-0.12l0.59-0.061
	l-0.01-0.119c0.83-0.33,1.52,0.07,1.93,0.27l0.24-0.02l0.01,0.119l0.24-0.029l0.01,0.12l0.12-0.011l0.011,0.111l0.119-0.011
	l0.02,0.229c0.25,0.201,0.44,0.871,0.381,1.391l-0.11,0.01l0.149,0.34l-0.119,0.01l0.04,0.351l-0.12,0.021l0.05,0.459l-0.12,0.021
	l0.03,0.229l-0.12,0.01l0.02,0.24l-0.219,0.141l0.039,0.35l-0.119,0.01l-0.08,0.371l-0.221,0.139l0.02,0.23l-0.33,0.27
	c-0.279,0.511-0.199,1-0.949,1.171c-0.23,0.17-0.68-0.12-0.98-0.261l-0.01-0.109l0.12-0.01l-0.09-0.82l0.22-0.15l0.17-0.72
	l0.33-0.28l-0.04-0.35l0.22-0.141l0.061-0.6l0.22-0.14c0.101-0.261,0.07-0.71,0.14-0.96c-0.18-0.07-0.379-0.17-0.51-0.301
	l-1.709,0.771l-0.091,0.24l-0.46,0.17l-0.09,0.25l-0.24,0.021l-0.199,0.379l-0.23,0.021l-0.09,0.25l-0.24,0.021l-0.2,0.379
	l-0.229,0.021l-0.2,0.38l-0.12,0.01l0.02,0.24l-0.75,0.78l0.03,0.239l-0.12,0.011l0.02,0.229l-0.219,0.15L59.649,155.87z
	 M32.979,147.87l-0.149-1.4l0.12-0.02c0.029-0.24-0.15-0.34-0.15-0.34c-0.061-0.24,0.09-0.24,0.09-0.24l-0.17-1.641l0.1-2.379
	c0.25-0.131,0.521-0.091,0.811-0.211l-0.01-0.109l1.061-0.11l-0.021-0.12l0.94-0.1c0.879-0.36,2.069-0.45,3.51-0.6l1.529-0.16
	l-0.01-0.121l0.12-0.01l0.01,0.12l0.69-0.2l0.01,0.121l1.891-0.201l0.01,0.121l0.82-0.08l0.02,0.109l0.59-0.061l0.01,0.121
	l0.35-0.041l0.011,0.121L46,140.47l0.01,0.12c0.4,0.08,0.8-0.19,1.07,0c0.159,0.181,0.03,1.3,0.069,1.78l0.4,4.93
	c-2.47,0.27-4.561,0.51-6.41,1.26l-0.82,0.09l0.011,0.11l-0.94,0.101l0.01,0.119l-0.939,0.101l0.01,0.11
	c-0.27,0.1-0.32-0.09-0.48-0.061L38,149.239l-5.05,0.531C32.87,148.97,32.88,148.45,32.979,147.87z M40.17,138.229l3.91-0.17
	l0.01,0.12l1.07,0.011l0.021,0.109l0.35-0.029l0.01,0.109l0.47-0.04l0.011,0.11l0.709-0.07l0.01,0.12l0.83-0.091l1.471,0.441
	l0.029,0.229c0.58,0.86,0.201,1.76,0.031,2.61l0.139,1.289c-0.029,0.42,0.051,1.58,0.141,2.471l0.15,1.41l-0.12,0.01l0.079,1.89
	c-0.159,0.11-0.43,0.37-0.539,0.53l-0.69,0.189l-0.01-0.119l-0.47,0.049l-0.021-0.119l-0.819,0.09l-0.01-0.12l-0.121,0.011
	l0.01,0.119l-1.17,0.12L44,149.68l0.01,0.12l-0.47,0.051l0.01,0.119l-0.699,0.07l0.01,0.119l-0.82,0.08l0.01,0.121l-1.18,0.119
	c-2.42,1.01-5.24,1.131-8.52,1.48c-0.201-0.23-0.621-0.311-0.771-0.51l-0.04-0.35l-0.109,0.01l-0.031-0.23l-0.119,0.01
	c-0.311-0.66,0.31-1.26,0.02-2.13c-0.061-0.17-0.25-0.19-0.26-0.21l-0.09-0.82l0.119-0.01l-0.1-0.939l0.11-0.01l-0.16-1.531
	l0.12-0.01l-0.189-0.689l0.109-0.01l-0.16-1.521l0.12-0.021l-0.09-0.819l0.31-1.569l0.33-0.271l-0.029-0.24l0.119-0.01
	c0.141-0.19,0.041-0.16,0.33-0.271c0.37-0.39,1.41-0.09,1.99-0.33l-0.02-0.109l0.709-0.08l-0.01-0.11l0.94-0.1l-0.011-0.12
	c0.621-0.25,1.66-0.13,2.221-0.35C38.39,138.34,39.739,138.7,40.17,138.229z M58.53,116.83l0.15,0.22l0.479,0.07l0.14,0.22
	c0.2,0.06,0.21-0.13,0.23-0.14l0.359,0.08c0.07,0.33,0.131,0.5,0.311,0.68l0.25,0.1l0.039,0.35l0.121-0.01l0.129,1.291l-0.119,0.01
	l0.029,0.24l-0.119,0.01l0.039,0.35l-0.229,0.141l0.03,0.239l-0.12,0.011l-0.3,0.51l-0.24,0.029l-0.2,0.371l-0.239,0.029l-0.09,0.25
	l-0.24,0.02l0.02,0.121l-0.24,0.02l0.01,0.119L58.5,122.18l0.01,0.12l-0.35,0.04l0.01,0.12l-0.47,0.05l-0.1,0.24l-0.121,0.021
	l0.33-1.461l0.121-0.02l-0.031-0.23l0.121-0.01l-0.051-0.47l0.12-0.021l-0.04-0.35l0.12-0.01l-0.069-0.711l0.109-0.01l-0.02-0.229
	l0.119-0.021l-0.26-2.47L58.53,116.83z M15.601,119.81l-0.121,0.01l-0.02-0.229l-0.12,0.011c-0.06-0.111-0.101-0.341-0.17-0.451
	c0.28-0.299,0.271-0.77,0.479-1.119l0.211-0.26l0.229-0.031l0.101-0.25l0.229-0.02l0.09-0.25l0.24-0.02l-0.011-0.12
	c0.561-0.04,0.851,0.06,1.32,0.1v2.25c0,0-0.14-0.01-0.09,0.25l0.131,0.11l-0.121,0.01L18,120.03l-0.11,0.02l0.08,0.82l-0.109,0.01
	l0.01,0.12l0.13,0.101c-0.66-0.07-1.101-0.451-1.72-0.531c-0.12-0.33-0.17-0.369-0.521-0.42L15.601,119.81z M1.819,115.45
	l0.201,0.81l0.119-0.01c0.15,0.14,0.35,0.18,0.51,0.3l0.141,0.221l0.48,0.069l0.02,0.12l0.23-0.03l0.02,0.12l0.35-0.04l0.01,0.12
	l0.24-0.02l0.01,0.109l0.351-0.04l0.01,0.12l0.36-0.029l0.01,0.109l0.471-0.05l0.01,0.12l0.479,0.07
	c0.091,0.279,0.16,0.42,0.21,0.81l-0.22,0.14c-0.14,0.18-1.05,0.51-1.511,0.4l-0.01-0.12l-0.229,0.021l-0.021-0.111l-0.58,0.061
	l-0.02-0.119l-0.23,0.029l-0.01-0.12l-0.359,0.04l-0.01-0.12l-0.73-0.159c-0.301-0.121-0.49-0.32-0.87-0.391
	c-0.13-0.33-0.33-0.43-0.55-0.65l-0.11,0.01c-0.39-0.449-0.489-1.25-0.59-2.069c0.21-0.24,0.069-0.271,0.19-0.5l0.22-0.14
	L0.39,114.3l0.11-0.02l0.2-0.371l0.24-0.029l-0.021-0.12l0.24-0.021l0.09-0.25l0.47-0.049l-0.01-0.121l0.359,0.08l-0.01-0.109
	l1.41-0.15l0.01,0.11l0.36-0.03l0.011,0.12l0.229-0.03l0.021,0.12l0.35-0.04l0.01,0.12l0.73,0.16l0.01,0.12l0.47-0.051l0.28,0.32
	c0.43,0.19,0.51-0.22,0.75,0.4l0.119-0.01c0.061,0.07,0.111,0.369,0.17,0.449L6.87,114.92c-0.18,0.44-0.45,0.64-1.11,0.71
	l-0.01-0.12l-0.84-0.03l-0.011-0.119l-0.35,0.039l-0.02-0.119L4.3,115.31l-0.14-0.229l-0.36,0.04L3.79,115
	C3.05,114.851,2.271,115.31,1.819,115.45z M46.95,104.25l0.01,0.12l0.24-0.03l0.27,0.33l0.24-0.021l0.27,0.32l0.24-0.02l0.53,0.539
	l0.239-0.029l0.531,0.54l0.239-0.021l0.14,0.221c0.311,0.229,0.73,0.65,1.15,0.709c0.141,0.361,0.42,0.541,0.67,0.761l0.25,0.101
	L52,108l0.26,0.21l0.021,0.24l0.119-0.01l0.471,1.02l0.109-0.02l0.03,0.239l0.12-0.01l0.051,0.47l0.109-0.01l0.029,0.23l0.121-0.01
	l0.029,0.35l0.25,0.1l0.2,0.689l0.11-0.01l0.029,0.23l0.121-0.01l0.309,0.68l0.111-0.01l0.049,0.47l0.121-0.01l0.039,0.35
	l0.121-0.01l0.029,0.351l0.12-0.011l0.08,0.7l0.11-0.01l0.049,0.47l0.121-0.011l0.1,0.941l0.12-0.011l0.12,1.17l0.119-0.01
	l0.011,0.12l-0.12,0.01l0.09,0.82l0.12-0.01l0.08,0.83l-0.11,0.01l0.051,0.47l-0.121,0.01l0.031,0.351l-0.111,0.02l0.031,0.35
	l-0.111,0.01L55.7,120.58l-0.11,0.01l0.021,0.229l-0.121,0.021l0.051,0.47l-0.12,0.01l-0.06,0.48l-0.121,0.02l-0.049,0.711
	l-0.11,0.01l0.021,0.24l-0.121,0.01l0.03,0.24l-0.229,0.14l0.029,0.229l-0.209,0.26l0.02,0.24l-0.12,0.01l0.03,0.24l-0.23,0.141
	l-0.061,0.48l-0.329,0.27l0.03,0.359l-0.32,0.271l0.02,0.229l-0.22,0.15l0.021,0.23l-0.431,0.399l0.021,0.24l-0.961,1.05
	l-0.719,1.141l-0.23,0.029l-0.2,0.37l-0.239,0.03l-0.091,0.25l-0.229,0.02l-0.311,0.51l-0.23,0.021l0.011,0.12l-0.46,0.17
	l0.01,0.109l-0.35,0.041l0.01,0.119l-0.35,0.041l0.01,0.109l-0.58,0.18l0.01,0.121l-0.449,0.17l0.01,0.109l-0.36,0.04l-0.091,0.25
	l-0.229,0.021l0.011,0.119l-0.471,0.051l0.01,0.119l-0.47,0.051l0.011,0.109l-0.471,0.051l0.01,0.119l-0.709,0.07l0.02,0.12
	l-0.36,0.04l0.31-0.51l0.121-0.01v-1.07l0.119-0.01l0.07-0.48l0.12-0.02l-0.04-0.351l0.12-0.01l-0.08-0.7l0.12-0.02l0.09-1.431
	l0.109-0.01l0.041-0.84l0.109-0.011l-0.029-0.35l0.109-0.01l-0.029-0.359l0.109-0.011l-0.05-0.47l0.12-0.01L46.01,124.8l0.12-0.01
	l-0.04-0.35l0.12-0.011l-0.05-0.47l0.12-0.02l-0.17-0.451l0.119-0.02l-0.06-0.58l0.12-0.02l-0.051-0.461l0.121-0.02l-0.23-3.3
	c0.12-0.72,0.09-1.67,0.221-2.399l-0.091-0.82l0.12-0.02l-0.05-0.471l0.12-0.01l-0.03-1.42l0.12-0.021l-0.1-0.94l0.119-0.01
	l-0.09-0.82l0.12-0.02l-0.09-0.82l0.12-0.01l-0.1-0.939l0.119-0.02l-0.15-1.41l0.121-0.011l-0.131-1.18l0.121-0.011l-0.17-1.649
	l0.109-0.01l-0.061-0.591l-0.149-0.34l0.12-0.01l-0.1-0.939L46.95,104.25z M25.58,107.351l0.09-0.25l0.46-0.171l0.09-0.239
	l0.24-0.031l0.2-0.379l0.229-0.021l-0.01-0.12l0.68-0.31l-0.01-0.12l0.35-0.03l-0.01-0.12l0.24-0.029l-0.02-0.11l0.24-0.03
	l0.09-0.25l0.699-0.189l-0.02-0.12l0.24-0.021l-0.01-0.119l0.689-0.19l-0.01-0.12l0.81-0.21l-0.01-0.11l0.229-0.029l-0.01-0.121
	l0.58-0.179l-0.01-0.11l0.59-0.07c0.32-0.14,0.84-0.32,1.141-0.48l0.01,0.12l0.119-0.01l-0.069,0.48l-0.22,0.15l-0.07,0.48
	l-0.23,0.14l0.041,0.36l-0.431,0.4l0.021,0.229l-0.221,0.149l-0.07,0.48l-0.22,0.141l0.021,0.239l-0.11,0.011l0.021,0.229
	l-0.121,0.021l0.041,0.35l-0.121,0.01l0.031,0.24l-0.121,0.01l-0.119,1.08l-0.12,0.02l0.021,0.23l-0.111,0.01l0.061,0.59
	l-0.12,0.021l0.021,0.229l-0.11,0.01l0.05,0.471l-0.119,0.02l0.039,0.351l-0.119,0.01l-0.11,1.2l-0.12,0.01l0.05,0.471l-0.12,0.02
	l0.051,0.47l-0.121,0.011l0.021,0.119c0.04,0.12,0.181-0.06,0.13,0.1l-0.23,0.15l0.051,0.471l-0.11,0.01l0.07,0.699l-0.12,0.021
	l0.07,0.58l-0.12,0.021l0.069,0.699l-0.109,0.01c-0.061,0.33,0.23,0.971,0.23,1.051l-0.121,0.01l-0.029,0.84l-0.12,0.01l0.14,1.291
	c0,0.01-0.17,0.109-0.08,0.369l0.11-0.02l0.021,0.119l-0.121,0.011l0.07,0.71l-0.109,0.01l0.05,0.471l-0.12,0.01l0.07,1.779
	l-0.121,0.01l0.041,0.351l-0.12,0.01l0.11,1.06l-0.121,0.011l0.11,2.13l0.12-0.01l0.01,0.109l-0.08,0.371l0.121-0.011l0.109,1.05
	c0,0,0.15-0.029,0.141,0.23c0,0-0.141,0.07-0.091,0.24l0.12-0.01l0.109,1.059c0.4,0.971,0.561,2.381,0.951,3.341
	c0.31,0.739-0.021,1.659,0.789,1.81l0.01,0.12l-1.189,0.011l-0.01-0.121l-0.35,0.041l-0.271-0.33l-0.24,0.02l-0.01-0.109
	l-0.36,0.029l-0.01-0.109l-0.48-0.07l-0.01-0.12l-0.6-0.06l-0.02-0.11l-0.601-0.06l-0.14-0.221l-0.48-0.07
	c-0.32-0.129-0.449-0.34-0.88-0.379l-0.021-0.24c-0.27,0-0.31,0.029-0.479-0.061l-0.021-0.119l-0.229,0.02l-0.021-0.11l-0.229,0.021
	l-0.14-0.221l-0.24,0.021l-0.141-0.22l-0.239,0.029l-0.14-0.23l-0.36-0.079l-0.03-0.229l-0.23,0.02c-0.149-0.36-0.42-0.53-0.68-0.76
	l-0.25-0.09l-0.18-0.57l-0.25-0.1l-0.02-0.23l-0.381-0.2l-0.02-0.229l-0.26-0.211l-0.17-0.459l-0.121,0.01l-0.17-0.45l-0.109,0.01
	l-0.04-0.351l-0.12,0.011l-0.311-0.681L21.2,126.58l-0.1-0.94l-0.121,0.02l-0.02-0.239l-0.12,0.01l-0.01-0.11l0.12-0.02l-0.07-0.58
	l-0.109,0.01c-0.11-0.279,0.069-0.5,0.049-0.6l-0.119,0.01l-0.15-0.34l-0.119,0.02c-0.021-0.049,0.109-0.89-0.011-1.189l-0.11,0.01
	c-0.25-0.609-0.119-2.17-0.05-2.609l-0.079-0.82l0.109-0.01l0.01-1.07l-0.119,0.01l-0.011-0.119l0.12-0.011l-0.03-0.229l0.12-0.021
	l-0.029-0.229l0.119-0.01l-0.06-0.591l0.12-0.01l0.039-0.72l0.121-0.01l0.06-0.48l0.12-0.02l0.029-0.83l0.121-0.01l-0.031-0.24
	l0.23-0.141l0.12-1.08l0.431-0.41l-0.031-0.35l0.111-0.01c0.09-0.18,0.069-0.211,0.069-0.48c0.46-0.199,0.13-0.06,0.319-0.39
	l0.221-0.149l-0.04-0.351l0.12-0.011L22.51,111l0.66-0.54l0.08-0.37l0.239-0.021c0.041-0.33,0.181-0.449,0.271-0.75L24,109.3
	l-0.03-0.23l0.12-0.02l0.41-0.63l0.34-0.16l-0.021-0.229C25.181,107.88,25.36,107.61,25.58,107.351z M36.64,102.61
	c0.15-0.06-0.07-0.14,0.1-0.13l0.011,0.11l1.06-0.11l0.021,0.12l1.409-0.15l0.011,0.12l0.83-0.09l0.01,0.12l0.95-0.1l0.01,0.11
	l1.66-0.05l0.02,0.11l0.721,0.05l0.01,0.12l0.85,0.14c0.16,1.57,0.541,3.5,0.28,4.97l0.17,1.529l-0.12,0.01l0.11,1.061l-0.12,0.02
	l0.13,1.17l-0.12,0.021l0.1,0.94l-0.119,0.01l0.09,0.82l-0.12,0.01l0.06,0.59l-0.119,0.02l0.06,0.58l-0.11,0.021l0.101,0.94
	l-0.12,0.01l-0.01,1.07l-0.12,0.01l0.08,0.709l-0.12,0.011l0.07,0.71l-0.11,0.01l0.181,1.76l-0.121,0.01l0.17,1.531l-0.119,0.01
	l0.05,1.66l-0.11,0.01l0.08,0.83l-0.109,0.01l0.039,0.47l-0.109,0.011l0.06,0.59l-0.12,0.01l0.03,0.24l-0.12,0.01l0.061,0.58
	l-0.121,0.02l0.041,0.35l-0.12,0.011l0.05,0.47l-0.12,0.01l0.07,0.59l-0.12,0.01l0.029,0.361l-0.109,0.01l0.029,0.35l-0.109,0.01
	l0.07,0.711l-0.12,0.01l-0.07,0.479l-0.11,0.011l-0.049,0.719l-0.221,0.141l0.13,0.109l-0.229,1.211l-0.12,0.01l0.13,1.17
	l0.359,0.08l0.15,0.23l0.35-0.041l0.021,0.24l-0.11,0.01l-0.02-0.119c-0.18,0.049-0.18,0.24-0.21,0.26l-1.19,0.01l0.021,0.109
	l-1.54,0.16l-0.01-0.109l-0.351,0.029l-0.01-0.109l-2.28-0.12c-0.96,0.021-3,0.569-3.55,0.13c-0.62,0.061-0.47,0.01-0.851-0.14
	c-0.129-1.14-0.439-2.15-0.799-3.011l-0.141-1.289l-0.109,0.02l-0.061-0.59l-0.12,0.01l-0.09-0.82l-0.12,0.01l-0.311-2.93
	c0,0,0.16-0.07,0.08-0.369l-0.119,0.01c-0.061-0.23,0.1-0.24,0.1-0.24l-0.09-0.82l0.12-0.02c0.04-0.28-0.171-0.301-0.171-0.45
	l0.121-0.021c0.07-0.31-0.07-0.66,0-1.069l0.119-0.011l-0.069-0.699c0.01-0.17,0.11,0.029,0.1-0.131c-0.06-0.069-0.19,0-0.14-0.229
	l0.119-0.01l-0.029-0.229l0.12-0.021l-0.13-1.17l0.119-0.011l-0.049-0.469l0.119-0.021c0.08-0.431-0.25-0.761-0.229-1.04l0.12-0.01
	l-0.08-0.711l0.119-0.01l-0.09-0.82l0.121-0.02l-0.091-0.82l0.12-0.01l-0.029-1.42l0.119-0.02l-0.039-0.35l0.119-0.011l-0.04-0.351
	l0.12-0.02l-0.07-0.58l0.121-0.02l0.109-1.2l0.12-0.01l-0.04-0.351l0.119-0.02l0.031-0.83l0.119-0.01l-0.029-0.24l0.119-0.01
	l-0.069-0.711l0.12-0.01l-0.03-0.229l0.12-0.021l-0.051-0.47l0.121-0.01l-0.03-0.24l0.22-0.14l-0.02-0.23l0.119-0.02l0.051-0.6
	l0.229-0.141l-0.04-0.35l0.221-0.141l0.069-0.49l0.22-0.14l0.061-0.6l0.54-0.53l-0.04-0.359l0.12-0.011l-0.03-0.239l0.23-0.141
	l-0.03-0.23l0.229-0.15l-0.029-0.23c0.18-0.32,0.449-0.28,0.52-0.77L36.64,102.61z M10.25,106.479l-0.58,0.18
	c-0.239-0.309-0.59-0.209-0.76-0.399c-0.2-0.22-0.06-0.63-0.21-0.93l-0.12,0.021l-0.03-0.24l-0.109,0.01l-0.041-0.35l-0.64-0.41
	l-0.01-0.11l-0.601-0.06l0.011,0.119l-0.12,0.01L7.03,104.2c-0.771-0.08-1.311,0.38-1.85,0.56c-0.101,0.25-0.16,0.22-0.171,0.61
	c0.38,0.189,0.15,0.32,0.64,0.41l0.031,0.229l0.76,0.511l0.02,0.119l0.35-0.039l0.271,0.329L7.569,107l0.011,0.12
	c0.229,0.14,0.31,0.24,0.63,0.289l0.02,0.23l0.381,0.2c0.109,0.29-0.51,0.83-0.74,0.91l0.02,0.12l-0.359,0.029L7.51,108.67
	c-0.28-0.04-0.3-0.069-0.5-0.19L7,108.37l-0.351,0.029L6.5,108.18l-0.229,0.03l-0.141-0.23l-0.24,0.03l-0.14-0.22l-0.351,0.029
	l-0.149-0.219c-0.28-0.141-0.521-0.221-0.86-0.261c-0.1-0.26-0.13-0.29-0.279-0.45l-0.121,0.01L3.96,106.67l-0.25-0.09l-0.02-0.24
	l-0.121,0.011l-0.02-0.23l-0.119,0.01l-0.051-0.471l-0.12,0.011l-0.06-0.58l0.119-0.021l-0.06-0.469l0.12-0.011l0.08-0.36l0.12-0.02
	l-0.04-0.35l0.22-0.14l-0.021-0.24l0.121-0.01c0.14-0.19,0.039-0.17,0.32-0.27c0.229-0.27,0.559-0.17,0.92-0.34l-0.011-0.12
	l0.351-0.03l-0.01-0.12l1.059-0.11l-0.02-0.12l0.471-0.05l0.02,0.12l0.58-0.07l0.02,0.12l0.48,0.07l0.01,0.12l0.36-0.04l0.399,0.43
	l0.36,0.08l0.17,0.46l0.25,0.09l0.16,0.34l0.11-0.01l0.629,1.359C10.62,105.8,10.26,106.01,10.25,106.479z M31.01,99.04
	c0.03-0.26-0.149-0.34-0.149-0.34L30.8,97.03l0.12-0.01l-0.09-1.89l0.12-0.02l-0.01-0.12l3.68-0.15l0.01,0.12l1.54-0.16l0.011,0.11
	l1.299-0.13l0.01,0.11l0.461-0.17l0.01,0.12l1.05-0.23l0.011,0.12l0.479-0.05l0.01,0.12l0.94-0.1l0.01,0.11l2.48-0.26
	c1.01,0.2,2.369,0,3.689-0.15c0.26,0.9,0.25,2.2,0.46,3.28l0.24,1.17l-0.11,0.01c0.01,0.16,0.221,0.28,0.18,0.58l-0.119,0.01
	l0.109,1.06c-0.08,0.48-0.189,1.12-0.18,1.69l-0.6-0.06l-0.15-0.22l-0.48-0.07l-0.14-0.22l-0.489-0.07l-0.141-0.22l-0.24,0.02
	l-0.14-0.22l-0.479-0.07l-0.021-0.11l-0.479-0.07l-0.011-0.12l-0.36,0.04l-0.01-0.12l-0.24,0.03l-0.01-0.12l-0.59,0.06l-0.01-0.12
	l-0.59,0.06l-0.01-0.11l-0.951,0.1l-0.01-0.12l-0.709,0.08l-0.011-0.12l-1.3,0.13l-0.01-0.11l-1.061,0.11l-0.01-0.12l-1.3,0.14
	c-0.4-0.07-2.55,0-3.08,0.21l-2.649,0.87C30.86,100.77,30.92,99.81,31.01,99.04z M48.71,88.09l0.221,0.93
	c0.409,0.02,0.969,0.49,1.449,0.21c0,0,0.24-0.33,0.32-0.39c0.08,0.14,0.07,0.27,0.17,0.45l0.119-0.01l0.051,0.47l0.9,0.62
	l0.029,0.36l0.12-0.02l0.17,0.46l0.12-0.01l0.061,0.59l0.119-0.01l0.061,0.59l0.119-0.01l0.091,0.82l0.11-0.01l0.039,0.35
	l0.121-0.01l0.34,2.11l0.119-0.01l0.15,1.41c0,0,0.109-0.03,0.141,0.22l-0.07,0.49c0.52,1.79,0.55,4.24,1.209,5.83l0.15,1.41
	l0.11-0.01c0.181,0.44-0.05,1.04-0.101,1.319c-0.049,0.32,0.181,0.561,0.201,0.69l-0.121,0.021c-0.1,0.82,0.291,1.63-0.129,2.15
	l0.01,0.119l-0.121,0.01l-0.18-0.57l-0.379-0.199l-0.031-0.35l-0.119,0.01l-0.17-0.461l-0.121,0.011l-0.17-0.46l-0.239-0.09
	l-0.03-0.23l-0.25-0.1l-0.02-0.23l-0.381-0.199l-0.029-0.24l-0.26-0.211l-0.23,0.031l-0.26-0.211l-0.03-0.24l-0.12,0.011l-0.27-0.32
	l-0.24,0.021l-1.18-1.061l-0.24,0.02l-0.53-0.539l-0.239,0.03l-0.4-0.44l-0.12,0.02l-0.011-0.12c0.271-0.31,0.23-0.67,0.23-1.22
	l-0.06-2.85l0.11-0.01L48.8,96.91l0.12-0.02l-0.16-0.34c-0.18-1.15-0.22-2.45-0.59-3.39l-0.16-1.53c-0.069-0.53-0.489-1.33-0.329-2
	l0.119-0.01l-0.029-0.23l0.119-0.02l-0.06-0.59c0.06-0.27,0.229-0.52,0.271-0.86C48.479,87.93,48.45,87.99,48.71,88.09z
	 M25.989,88.85c0.121,0.53,0.361,0.64,0.591,1.01l0.13,0.1l0.82-0.08l0.02,0.11l0.23-0.02l0.42,0.55l0.47-0.05l0.011,0.12
	l0.119-0.01l0.189,1.76l-0.119,0.02l0.16,0.34l-0.12,0.01l0.22,2.12l-0.109,0.01l0.119,1.18l-0.119,0.01l0.1,0.95L29,96.99
	l0.14,2.37l-0.119,0.01l0.109,1.06l-0.12,0.01l0.091,0.82l-0.121,0.02c-0.069,0.42,0.211,0.89,0.01,1.19L29,102.58l-0.69,0.2
	l0.01,0.11l-0.35,0.04l0.01,0.12l-0.35,0.04l0.01,0.11l-0.35,0.04l0.01,0.12l-0.68,0.31l0.01,0.12l-0.24,0.02l0.021,0.12l-0.24,0.03
	l0.011,0.109l-0.23,0.031l0.01,0.119l-0.24,0.02l0.02,0.121l-0.239,0.02l-0.21,0.26l-0.24,0.03l0.02,0.12l-0.34,0.15l-0.1,0.25
	l-0.23,0.02l-0.09,0.25l-0.24,0.029l-0.09,0.24c-0.289,0.26-0.22-0.1-0.319,0.4c-0.54,0.2-0.601,0.641-1.101,0.83
	c-0.07,0.41-0.22,0.33-0.279,0.74c-0.51,0.199-0.37,0.49-0.881,0.689c0-1.109,0.211-2.06,0.391-3.02l-0.01-2.38l0.119-0.01
	l-0.039-0.35l0.119-0.01l-0.069-0.59l0.12-0.02l-0.021-0.23l0.11-0.01l-0.051-0.47l0.121-0.02l-0.051-0.47l0.12-0.01l-0.05-0.47
	l0.12-0.01l0.08-1.44l0.12-0.01l-0.03-0.24l0.12-0.01l-0.061-0.59l0.121-0.01l-0.041-0.36l0.12-0.01l0.03-0.83l0.12-0.02l-0.03-0.23
	L23,96.55l0.05-0.6l0.12-0.01l-0.05-0.47l0.119-0.01l0.07-0.49l0.11-0.01l-0.03-0.35l0.221-0.15l0.07-0.48l0.329-0.27l0.16-0.73
	l0.22-0.15l0.07-0.48l0.12-0.01l-0.091-0.83c0,0,0.08-0.04,0.091-0.25l0.47-0.05c0.29-0.19,0.04-0.59,0.141-0.96l0.119-0.02
	l0.16-0.73l0.11-0.01c0.11-0.19,0.159-0.35,0.18-0.62L25.989,88.85z M44.5,78.76l-0.2-0.82l-0.119,0.01
	c-0.061-0.19,0.09-0.21,0.09-0.24l-0.23-1.05l0.12-0.02l-0.14-1.3l-0.19-2.96l0.12-0.02l-0.141-1.29l0.121-0.02l-0.141-1.3
	l0.12-0.01l-0.12-1.18l0.12-0.02L43.81,67.6l0.11-0.01l-0.14-0.23l0.119-0.01l-0.08-0.71l0.121-0.01l-0.121-1.18
	c0.17-0.95,0.19-2.24,0.121-3.37c0.26-0.18,0.449-0.29,0.789-0.44l-0.01-0.12l0.37,0.08c0,0,0.04-0.21,0.22-0.14l0.021,0.11
	l0.37,0.2c-0.17,0.77,0.32,1.96,0.17,2.74c-0.18,0.95-0.07,2.29-0.25,3.25l0.13,1.3l-0.11,0.02l0.09,2.02l-0.119,0.01l0.209,0.82
	L45.7,71.94l0.08,0.83c-0.021,0.16-0.11-0.04-0.1,0.13c0.1,0.11,0.149-0.06,0.129,0.1l-0.119,0.01l0.08,0.71l-0.121,0.02
	c-0.06,0.29,0.19,0.62,0.19,0.69l-0.12,0.01l0.08,0.71l-0.119,0.02l0.139,1.3L45.7,76.48l0.1,0.94l-0.38,1
	C44.819,78.51,45.03,78.63,44.5,78.76z M31.69,62.69c0.069,0.24,0.25,1.06,0.17,1.53l-0.121,0.02l0.181,1.77l-0.11,0.01l0.15,0.34
	l-0.12,0.02l0.14,1.3c0.041,0.45,0,1.18-0.069,1.56l0.19,1.77l-0.121,0.01l0.101,0.95l-0.12,0.01l0.141,1.3
	c-0.361,1.99,0.149,4.56-0.011,6.69c-0.28,0.16-0.36,0.25-0.8,0.32c-0.28-0.39-0.51-0.45-0.6-1.13c-0.32-0.28-0.131-0.96-0.141-1.3
	l-0.09-3.09l-0.109,0.01l0.039-0.72l0.12-0.01l-0.12-1.06l0.12-0.02l-0.149-0.34l0.119-0.01l-0.049-1.55l-0.121,0.01
	c-0.14-0.37,0.061-0.56,0.03-0.84l-0.12,0.02l-0.01-0.12l0.12-0.01l-0.021-0.24l0.11-0.01c0-0.14-0.25-0.29-0.181-0.58
	c0.031-0.09,0.261-0.08,0.211-0.26l-0.11,0.01c-0.06-0.28,0.08-0.37,0.08-0.37l-0.2-0.69L30.101,68c0-0.2,0.199-0.22,0.219-0.26
	l-0.219-2.01l0.119-0.02l-0.14-1.3l0.34-1.35l0.34-0.15l-0.01-0.12l0.229-0.03l-0.01-0.11l0.12-0.02l0.011,0.12L31.69,62.69z
	 M26.16,54.43l-0.021-0.12l0.36-0.03l0.09-0.25l0.69-0.32l-0.021-0.12c0.271-0.17,0.65-0.16,0.921-0.33l0.1-0.25l0.35-0.04
	l-0.01-0.12l0.369,0.08l0.08-0.37l0.23-0.02l-0.01-0.12l0.24-0.03l-0.021-0.12l0.36-0.04l-0.01-0.11l0.229-0.03l-0.01-0.12
	l0.47-0.05l-0.01-0.12l0.35-0.04l-0.01-0.11l0.59-0.07l-0.01-0.12l0.59-0.06l-0.01-0.12l0.71-0.08l-0.011-0.11L33.56,51l-0.01-0.12
	l0.59-0.07l-0.01-0.12l1.54-0.16c0.36-0.15,1.91-0.49,2.47-0.39l0.01,0.12l0.961,0.01l0.01,0.12l0.359-0.04l0.01,0.12l0.841,0.03
	l0.01,0.12l1.82,0.16l0.01,0.12l0.479,0.07l0.021,0.12l0.229-0.03l0.15,0.23l0.23-0.03l0.15,0.22l0.229-0.02l0.28,0.33l0.229-0.03
	l0.021,0.12l0.229-0.03l0.149,0.23l0.48,0.07l0.01,0.11l0.371,0.08l0.149,0.23l0.479,0.07l0.28,0.33l0.89,0.5l0.021,0.24l0.25,0.09
	l0.931,0.86l0.229-0.03c0.12,0.29,0.09,0.19,0.28,0.33l0.01,0.12l0.24-0.03l0.27,0.33l0.24-0.02l0.14,0.22l0.511,0.3l0.17,0.46
	l0.379,0.2l0.17,0.46l0.25,0.1l0.15,0.34l0.381,0.2l0.029,0.23l0.25,0.1l0.02,0.23l0.381,0.2l0.029,0.24l0.25,0.09l0.021,0.24
	l0.12-0.01l0.359,1.15l0.121-0.01l0.039,0.36l0.11-0.02l0.03,0.24l0.119-0.01l0.03,0.35l0.12-0.01l0.04,0.36l0.12-0.02l0.04,0.36
	l0.11-0.02l0.209,0.82l0.121-0.01l0.119,1.18l0.12-0.01l-0.09,0.25l0.11-0.02l0.05,0.48l0.12-0.01l0.06,0.59l0.78,1.71l0.08,0.71
	l0.109-0.02l0.07,0.6l0.11-0.02l-0.06,0.49l0.109-0.01l0.3,2.83l0.171,1.66L56.8,72.9l0.1,0.94l0.201,3.09
	c0.219,2.2,0.67,4.86,0.34,6.65l0.16,1.54l-0.121,0.01l0.08,0.71l-0.119,0.01l0.09,0.83l-0.12,0.01l0.11,1.06l-0.121,0.01
	l0.101,0.95l-0.12,0.01l0.061,0.59l-0.121,0.01l0.07,0.59c-0.09,0.33-0.279,0.33-0.27,0.87l-2.811,0.53
	c-0.05-0.36-0.07-0.56-0.209-0.81l-0.121,0.01l-0.189-0.69l-0.12,0.01l-0.021-0.24l-0.119,0.02l-0.021-0.24l-0.649-0.41l-0.021-0.23
	l-0.25-0.1l-0.021-0.23l-0.119,0.01l-0.211-0.81l-0.109,0.01l-0.029-0.24l-0.121,0.02l-0.029-0.36l-0.801-0.75l-0.35,0.04
	l-0.02-0.12l-0.23,0.03l-0.02-0.12l-0.471,0.05l-0.01-0.12l-0.119,0.01l0.01,0.12l-0.351,0.04l0.011,0.12L49,86.27l-0.011-0.12
	l-0.239,0.03l-0.14-0.22L48.25,86l-0.011-0.12l-1.059,0.11c-0.211,0.12-0.851,1.57-0.881,1.88l-0.359,0.04l0.02,0.12
	c-0.58,0.71,0.189,3.21,0.34,4.38c-0.98,0.09-1.76,0.15-2.51,0.02c-0.4-0.06-0.721,0.23-0.93,0.22l-0.01-0.12l-3.67,0.28
	l-0.011-0.12l-1.54,0.16l-0.01-0.12l-1.061,0.12l-0.02-0.12l-0.811,0.21l-0.01-0.12l-1.06,0.11l-0.021-0.12l-1.18,0.13l-0.109,0.01
	l-0.021-0.12L31.8,93l-0.01-0.12l-0.59,0.06l-0.01-0.12l-0.371-0.08l-0.159-2.6l0.12-0.01l-0.16-0.35l0.119-0.01L30.69,89.3
	l0.119-0.01l-0.119-1.18c-0.26-0.18-0.131-0.27-0.291-0.45l-0.119,0.02c-0.4-0.39-0.68-0.42-1.36-0.46
	c-0.11-0.31-0.19-0.24-0.3-0.56c-0.34-0.04-0.33-0.18-0.381-0.2c-1-0.29-1.379,0.94-2.01,0.1l-1.18,0.12l-0.1,0.25l-0.53,0.54
	l0.021,0.23l-0.121,0.02l0.031,0.23l-0.23,0.14l-0.16,0.74l-0.109,0.01L23.8,89.56l-0.22,0.14l-0.08,0.37l-0.47,0.05
	c-0.051,0.36-0.17,0.29-0.2,0.38l0.01,0.12l0.12-0.02l0.01,0.12l-0.119,0.01l0.06,0.47l-0.88,1.88c-0.37,0.04-0.561,0.06-0.83-0.03
	l-0.02-0.11l-0.82,0.09l-0.01-0.12c-0.431-0.08-0.9,0.21-1.201,0.01c-0.66-0.56-0.02-1.93-0.43-2.94L18.601,90l-0.361-2.35
	l0.111-0.01L18.3,87.17l-0.15-0.34l0.11-0.02c0-0.17-0.14-0.22-0.14-0.22l0.07-0.48C18.14,85.95,18.05,86.17,18.06,86l0.121-0.01
	L18,85.41c-0.181-0.91-0.149-1.82-0.03-2.5l-0.22-4.27l0.12-0.01l-0.051-0.47l0.121-0.02l-0.11-0.94l0.12-0.01l-0.07-0.71L18,76.47
	l-0.04-0.36l0.12-0.01l-0.07-0.59l0.12-0.01l-0.22-3.2l0.12-0.02l-0.08-0.7l0.119-0.02l0.031-0.84l0.119-0.01l-0.039-0.35
	l0.119-0.01l-0.029-0.24l0.119-0.01l-0.039-0.36l0.119-0.01l-0.08-0.71l0.12-0.01l-0.04-0.36l0.12-0.01l-0.04-0.35l0.12-0.02
	l-0.069-0.7l0.109-0.02l-0.029-0.35l0.109-0.01l-0.07-0.71l0.12-0.02l-0.04-0.35l0.12-0.01l-0.04-0.36L19,65.73l-0.04-0.35
	l0.12-0.02l-0.04-0.35L19.16,65l-0.03-0.24l0.12-0.01l-0.04-0.36l0.12-0.01l-0.021-0.24l0.11-0.01l-0.03-0.35l0.221-0.15l-0.03-0.23
	l0.12-0.02l-0.04-0.35l0.229-0.15l-0.029-0.23l0.439-0.41l0.07-0.48l0.22-0.15l-0.03-0.23l0.23-0.15L20.76,61l0.229-0.15l0.051-0.6
	l0.439-0.41l-0.039-0.35l0.43-0.41l-0.02-0.23l0.33-0.28c0.359-0.46,0.799-0.98,1.029-1.54L23.44,57
	c0.109-0.67,0.729-0.93,1.18-1.32l0.189-0.38l0.24-0.03l-0.01-0.12c0.24-0.19,0.16,0.03,0.33-0.27l0.23-0.03l-0.021-0.24
	C25.88,54.56,25.989,54.56,26.16,54.43z M54.83,92.93l0.61,3.51l0.119-0.01l0.121,1.18l0.329,1.99l0.12-0.02l0.28,2.71l0.12-0.01
	l0.27,1.4l0.12-0.01l0.12,1.181c0.07,0.18,0.33,0.789,0.24,1.159l-0.12,0.021l0.03,0.229l-0.121,0.011l0.061,0.59l-0.12,0.02
	l0.29,1.63l-0.119,0.011l0.039,0.359l-0.119,0.01l0.129,1.18l-0.119,0.011l-0.061,0.6l-0.46,0.171l0.021,0.119
	c-0.41,0.25-0.42-0.15-0.43,0.52c0.399,0.291,0.359,0.65,0.6,1.121l0.119-0.01l0.051,0.469l0.109-0.01l0.041,0.35l0.119-0.01
	l0.04,0.351l0.11-0.011l0.04,0.351l0.12-0.01c0.18,0.399,0.06,0.899,0.359,1.149c0.32,0.211,0.811-0.17,1.311-0.02l0.01,0.12
	l0.49,0.069l0.01,0.121l0.48,0.069l0.149,0.22l0.229-0.029l0.271,0.33l0.37,0.08l0.029,0.239l0.371,0.19l0.029,0.24l0.51,0.299
	L62.5,118.2l0.11-0.01l0.06,0.58c0,0,0.13-0.031,0.149,0.229l-0.119,0.01l0.01,0.12l0.12-0.02l0.06,0.59l-0.119,0.01l0.06,0.59
	l-0.11,0.01l0.03,0.36l-0.33,0.271l-0.069,0.479l-0.431,0.399l-0.31,0.511l-0.23,0.03l-0.09,0.24l-0.35,0.159l0.02,0.12l-0.24,0.02
	l-0.09,0.25l-0.24,0.021l-0.09,0.25l-0.24,0.03l0.01,0.109l-0.68,0.311l0.01,0.119l-2.229,0.351l-0.01-0.11l-0.24,0.021
	c-0.03,0.34-0.12,0.59-0.26,0.86l-0.229,0.14l-0.07,0.489l-0.221,0.141l0.041,0.35l-0.23,0.141l0.029,0.24l-0.22,0.14l0.021,0.239
	l-0.541,0.531l0.041,0.35l-0.45,0.279l0.021,0.24l-0.431,0.4l0.021,0.24l-0.34,0.149l-0.091,0.25c-0.31,0.36-0.63,0.601-0.71,1.14
	l0.11-0.01l0.069,0.59l0.11-0.02l0.03,0.24l0.119-0.01l0.07,0.699l0.121-0.01l0.109,1.061l0.12-0.021l0.05,0.47l0.109-0.01
	l0.041,0.35l0.119-0.01c0.11,0.27-0.09,0.471-0.06,0.6l0.12-0.01l0.07,0.7l0.119-0.01l0.11,1.06l0.12-0.02l-0.08,0.37l0.12-0.011
	l0.06,0.58c0,0-0.149,0.021-0.09,0.25l0.11-0.01l0.021,0.11l-0.121,0.021l0.01,0.109l0.121-0.01l0.119,1.18l0.121-0.02l0.01,0.119
	l0.01,1.19l0.119-0.021l-0.069,0.48l0.12-0.01l0.141,1.41l0.119-0.01c0.1,0.27-0.1,0.33-0.07,0.479l0.121-0.011l0.18,1.761
	l-0.11,0.01l0.011,0.12l0.119-0.02l0.17,1.64l0.12-0.011l0.12,1.171l0.32,1.87l0.109-0.01l0.11,1.049l0.12-0.01l-0.09,0.25
	l0.119-0.02l-0.08,0.37l0.15,0.34l-0.119,0.01l0.06,0.58l0.12-0.01l0.01,0.12l-0.109,0.01l0.079,0.82l-0.34,0.16l0.011,0.109
	l-0.23,0.03l0.01,0.11l-0.24,0.029l0.02,0.11c-0.189,0.11-0.489-0.011-0.579,0.18l0.19,1.761l0.109-0.011c0,0-0.04,0.65-0.029,0.83
	c-0.291,0.19-0.181,0.229-0.681,0.31l-0.011-0.119l-0.359,0.039l-0.141-0.219l-0.469,0.039L54.51,155.7
	c-0.25-0.24-0.1-0.76-0.239-1.16l-0.121,0.01c-0.049-0.18,0.09-0.24,0.09-0.25c0.011-0.21-0.139-0.22-0.139-0.22l-0.011-0.12
	l0.12-0.01c0.02-0.24-0.21-0.4-0.3-0.561l-0.24,0.03c-0.37,0.81-0.771,0.59-0.62,1.96l0.68,0.87l0.121-0.011l0.09,0.82
	c-0.291,0.19-0.181,0.23-0.681,0.311l-0.021-0.12l-0.709-0.05l-0.021-0.11c-0.149-0.12-0.04,0-0.14-0.22l-0.471,0.05
	c-0.16-0.28-0.279-0.47-0.439-0.79l-0.12,0.01l-0.01-0.109l0.12-0.021l-0.16-0.33c0.02-0.069,0.16-0.03,0.1-0.25l-0.119,0.011
	c-0.131-0.351-0.041-0.871,0.01-1.061l-0.051-0.471l0.11-0.01l-0.021-0.24l0.121-0.01l0.049-0.6l0.33-0.27l0.41-0.631l0.24-0.029
	l0.09-0.25l0.68-0.301l-0.01-0.119l0.23-0.03l-0.01-0.11c0.24-0.1,0.369,0.08,0.369,0.08l0.701-0.08l0.02,0.12
	c0.18,0.08,0.21,0.06,0.48,0.07c0.08-1.011,0.039-2.17-0.32-3.05l-0.17-1.641l-0.12,0.01l-0.38-3.629l-0.12,0.01l-0.21-1.99
	l-0.051-0.471l-0.119,0.011l-0.26-2.46l-0.121,0.01c-0.1-0.279,0.09-0.46,0.061-0.6l-0.12,0.01l-0.22-2.109l-0.12,0.01l-0.101-0.94
	l-0.109,0.021l-0.1-0.94l-0.121,0.01l-0.06-0.59l-0.12,0.021l-0.039-0.36l-0.111,0.021l-0.09-0.83l-0.129-0.101l-0.34,0.149
	l0.01,0.121l-0.351,0.039l0.011,0.11l-0.811,0.21l0.01,0.12l-0.24,0.021l0.021,0.119l-0.479,0.051l-0.091,0.24l-0.46,0.17
	l0.01,0.119l-0.449,0.17l0.01,0.11l-0.36,0.04l0.021,0.12l-0.24,0.021l0.01,0.119l-0.93,0.221l0.02,0.109l-0.59,0.061l0.01,0.119
	l-0.81,0.211l0.01,0.109l-0.35,0.04l0.01,0.12l-0.47,0.05l-0.1,0.24l-0.591,0.069l0.021,0.11c-0.25,0.091-0.37-0.079-0.37-0.079
	l-1.53,0.159l0.01,0.12l-0.359-0.08l-0.811,0.2l-0.02-0.11l-0.471,0.04l-0.01-0.11l-0.35,0.031l-0.02-0.111l-0.471,0.051l-0.01-0.12
	l-0.59,0.06l-0.01-0.119l-0.59,0.06l-0.011-0.11l-0.34,0.15l-0.011-0.109c-1.289-0.15-2.459,0.559-3.539,0.359l-0.94,0.1
	l-0.01-0.109l-0.47,0.039l-0.01-0.109l-0.471,0.05l-0.02-0.12l-0.351,0.041l-0.01-0.121l-0.59,0.061l-0.011-0.12l-0.35,0.04
	l-0.02-0.12l-0.35,0.04l-0.011-0.12l-0.36,0.04l-0.01-0.12l-0.23,0.03l-0.149-0.221l-0.47,0.041l-0.01-0.11l-0.48-0.069l-0.01-0.121
	l-0.36,0.041l-0.14-0.221l-0.35,0.03l-0.021-0.11l-0.229,0.02l-0.011-0.119l-0.239,0.029l-0.011-0.119l-0.239,0.029l-0.261-0.209
	l-0.479-0.07l-0.271-0.33l-0.489-0.07l-0.141-0.221l-0.359-0.079l-0.021-0.12l-0.351,0.04l-0.14-0.22l-0.239,0.02l-0.141-0.22
	c-0.26-0.19-0.439-0.261-0.859-0.261l-0.111,1.19l-0.119,0.011l0.02,1.31l-0.109,0.01l0.209,0.931l-0.109,0.01
	c-0.08,0.449,0.051,0.83,0.109,1.05l-0.119,0.01l-0.23,2.28l0.131,0.1l-0.121,0.02l0.061,1.65c-0.141,0.77-0.061,1.84-0.2,2.631
	l0.12,1.049l-0.12,0.011l0.05,0.47l-0.119,0.01l0.01,0.12l0.119-0.01c0.07,0.2-0.08,0.2-0.09,0.239l0.07,0.711l-0.109,0.01
	l0.149,0.34l-0.12,0.01l0.09,0.82c-0.01,0.17-0.119-0.04-0.1,0.13l0.109-0.01l0.131,1.17l-0.12,0.011l0.04,0.35l-0.12,0.01
	l0.239,1.16l0.121-0.01c0.039,0.16-0.09-0.041-0.101,0.129c-0.03,0.301,0.11,0.41,0.181,0.57l-0.24,0.03c0,0,0.24,0.39,0.189,0.69
	l-0.109,0.01l0.09,2l-0.12,0.01c0,0.15,0.21,0.18,0.17,0.46l-0.12,0.011l0.051,1.529c0,0,0.129,0.02,0.139,0.23l-0.09,0.24
	l0.15,0.34l-0.109,0.01l0.16,0.46l-0.111,0.01l0.24,1.16l-0.119,0.01l0.029,0.229l-0.229,0.141l0.17,0.46l-0.12,0.011
	c-0.07,0.18-0.061,0.209-0.061,0.479l-1.16,0.239l-0.02-0.119l-0.23,0.029l-0.01-0.119l-0.49-0.07l-0.139-0.221l-0.23,0.031
	l-0.15-0.23c-0.32-0.24-0.67-0.51-1.13-0.59l-0.04-0.351l-0.109,0.011c-0.131-0.131-0.28-0.101-0.381-0.19l-0.02-0.24l-0.26-0.21
	l-0.24,0.03l-0.4-0.431l-0.35,0.03c0.08,0.87,0.43,1.41,0.8,1.931l0.021,0.229l0.25,0.101l0.17,0.449l0.24,0.09l0.399,0.43
	l0.24-0.02l0.01,0.12c0.16,0.091,0.24,0.06,0.38,0.19l-0.119,0.02l0.09,0.811l-0.24,0.029l-0.09,0.25
	c-0.271,0.141-0.94,0.08-1.07-0.01c-1.141-0.16-2-1.98-2.46-3.061c-0.32-0.729,0-1.289-0.431-1.84l0.221-1.209
	c0.67-0.49,0.439-0.641,1.699-0.771c0.23,0.21,0.24,0.08,0.49,0.19l0.021,0.119l0.229-0.029l0.271,0.33l0.239-0.03l0.271,0.33
	l1.03,0.72l0.02,0.24c0.42,0.061,0.33,0.21,0.75,0.27c0.11-2.029-0.24-4.83-0.109-6.49l-0.18-1.76l0.109-0.01l-0.25-4.59l0.12-0.01
	l-0.08-0.711l0.12-0.01l-0.1-0.93l0.119-0.02l-0.1-0.93l0.119-0.021l-0.09-0.82l0.121-0.01l-0.09-0.82l0.119-0.01l-0.09-0.819
	c0.189-1.021,0.17-2.33,0.35-3.361l-0.149-1.399c0,0,0.149-0.06,0.079-0.37c0,0-0.18-0.029-0.139-0.22l0.219-0.14l0.011-1.07
	l0.11-0.01l-0.03-0.351c0.12-0.46,0.26-0.67,0.21-1.329c-0.59-0.281-0.801-0.791-1.21-1.301l-0.24-0.09l-0.181-0.57l-0.119,0.01
	l-0.03-0.24l-0.25-0.09l-0.03-0.35l-0.119,0.01L20.16,128l-0.11,0.01l-0.311-0.68l-0.119,0.01l-0.04-0.351L19.46,127l-0.029-0.351
	l-0.121,0.01l-0.05-0.469l-0.12,0.02l-0.06-0.59l-0.12,0.01l0.07-0.48l-0.12,0.01l-0.06-0.59c-0.24-0.529-0.5-1.319-0.69-1.939
	c-0.62,0.32-0.729,0.07-1.2-0.109l-0.23,0.02l-0.02-0.11l-0.58,0.06l-0.02-0.119l-0.23,0.029l-0.141-0.229l-0.489-0.06l-0.14-0.23
	l-0.771-0.51l-0.021-0.23l-0.379-0.199l-0.03-0.24l-0.37-0.19l-0.051-0.47l-0.119,0.01l-0.21-0.811l0.12-0.01l-0.061-0.59l0.11-0.01
	l0.069-0.48l0.121-0.02l-0.031-0.23l0.23-0.14l-0.029-0.239l0.119-0.011c0.17-0.26,0.33-0.399,0.391-0.76
	c0.34-0.13,0.439-0.32,0.66-0.54l-0.01-0.12l0.229-0.021l-0.011-0.119l0.461-0.17l-0.021-0.11l0.36-0.04
	c0.32-0.16,1-0.529,1.619-0.41c0.291,0.051,0.541,0.16,0.971,0.131l0.21-1.32l0.12-0.021l0.24-1.09l0.119-0.021l0.051-0.6
	l0.119-0.01c0.121-0.15-0.01-0.04,0.221-0.141c0.01-0.649,0.37-0.689,0.46-1.24c-0.229-0.109-0.13-0.069-0.271-0.319l-0.119,0.011
	l-0.01-0.121l0.119-0.01L19.67,110l0.12-0.021l-0.15-1.41l0.11-0.01l-0.069-0.699l0.119-0.021l-0.08-0.7l0.12-0.01l-0.05-0.48
	l0.12-0.01l-0.03-0.23l0.12-0.02l-0.06-0.58l0.109-0.02l-0.02-0.23l0.119-0.01l-0.069-0.59l0.12-0.01l-0.09-0.83l0.119-0.01
	l-0.069-0.71l0.11-0.01l-0.07-0.7l0.119-0.02l-0.08-0.7l0.121-0.02l0.109-1.2l0.12-0.01l-0.03-0.24l0.121-0.01L20.62,99.9
	l0.109-0.01L20.7,99.54l0.109-0.01l0.01-1.08l0.121-0.01l-0.041-0.35l0.121-0.01l-0.041-0.36l0.121-0.01l-0.051-0.47l0.11-0.01
	l0.021-0.96l0.119-0.01l0.1-1.32l-1.08-0.01c0,0-0.09,0.19-0.34,0.16l-0.01-0.12l-0.47,0.05l-0.011-0.12l-1.649,0.18l-0.021-0.12
	l-0.359-0.08c-0.13-0.6-0.38-1.82-0.46-2.09l-0.09-0.83l0.12-0.01l-0.021-0.12l-0.11,0.02c-0.069-0.2,0.08-0.22,0.09-0.25
	c0.031-0.29-0.149-0.3-0.17-0.46l0.121-0.01l-0.051-0.47l-0.119,0.01l-0.181-1.65l-0.11,0.01l-0.08-0.71l-0.119,0.02l-0.01-0.12
	l0.119-0.01l-0.07-0.59l-0.189-0.7c0,0,0.141-0.02,0.09-0.25c0,0-0.13-0.06-0.14-0.22l0.11-0.13c-0.041-0.07-0.141,0.01-0.15-0.22
	c0-0.17,0.13,0.03,0.109-0.13l-0.129-0.11l0.069-0.48l-0.12,0.01l-0.17-1.53l0.12-0.01l-0.14-1.3l0.119-0.01l-0.08-0.71l0.121-0.01
	l-0.221-3.2l0.12-0.01l-0.14-0.23l0.109-0.01l-0.06-0.59l0.12-0.01l-0.12-1.06l0.12-0.02l-0.04-0.35l0.12-0.01l-0.04-0.36l0.12-0.01
	l-0.07-0.71l0.12-0.01L15.84,73l0.11-0.01l-0.08-0.83l0.109-0.01l-0.1-0.95L16,71.19l-0.05-0.47l0.119-0.02l-0.029-0.23l0.12-0.01
	l-0.05-0.48l0.119-0.01l-0.039-0.35l0.119-0.02l0.03-0.84l0.12-0.01l-0.07-0.59l0.12-0.01l0.12-2.28l0.109-0.02l-0.02-0.23
	l0.12-0.02l-0.05-0.47l0.109-0.01l-0.02-0.24L17,64.87l0.12-1.09l0.22-0.14l-0.05-0.47l0.23-0.15l0.06-0.48l0.229-0.15l-0.039-0.35
	l0.219-0.15l0.16-0.73l0.33-0.28l-0.02-0.23l0.221-0.15l-0.031-0.23l0.23-0.15l0.08-0.36l0.12-0.02l0.159-0.73l0.33-0.28L19.54,58.5
	l0.22-0.15l-0.021-0.23l0.431-0.41l-0.021-0.23l0.541-0.54l-0.03-0.24l0.649-0.67L21.28,55.8l0.33-0.28l0.729-1.03l0.229-0.03
	l0.19-0.5l0.46-0.17l0.2-0.38l0.24-0.02l0.21-0.27l0.23-0.02l-0.011-0.12l0.24-0.02l0.09-0.25l0.351-0.04l-0.011-0.12L25,52.52
	l-0.011-0.12l0.681-0.31l-0.01-0.12l0.35-0.03l0.091-0.26l0.58-0.18l-0.011-0.12l0.24-0.02L27,51.11l0.58-0.18l-0.011-0.12
	l0.23-0.03l-0.01-0.12l0.68-0.31l-0.01-0.12l0.359-0.04l-0.02-0.12l0.24-0.02l-0.01-0.12l0.47-0.05l-0.011-0.12l0.351-0.04
	l-0.01-0.12l1.29-0.25l-0.02-0.12l0.709-0.08l-0.01-0.12l0.471-0.05l-0.011-0.12l0.47-0.05l-0.01-0.12l1.07-0.11l-0.02-0.12
	L34.5,48.5l-0.021-0.12l1.541-0.17l1.879-0.32l0.011,0.12l1.19-0.13L39.11,48l0.72,0.04l0.149,0.22l0.471-0.05l0.01,0.12l0.359-0.04
	l0.011,0.12l0.71-0.08l0.01,0.12l0.471-0.05l0.02,0.12l0.59-0.06l0.01,0.11l0.24-0.02l0.01,0.12l0.36-0.04l0.01,0.12l0.351-0.04
	l0.02,0.12l0.23-0.03l0.149,0.23L44.239,49l0.15,0.22l0.23-0.02l0.15,0.22L45,49.4l0.149,0.22l0.48,0.07l0.141,0.22l0.239-0.02
	L46.021,50l0.369,0.08l0.141,0.23l0.24-0.03l0.41,0.44l0.479,0.07l0.28,0.33l1.029,0.72L49,52.08l0.239,0.09l0.281,0.33l0.239-0.02
	l0.53,0.54l0.24-0.03l0.8,0.75l0.239,0.1l0.031,0.23l0.25,0.1l0.02,0.23l0.25,0.1l0.16,0.34l0.119-0.02l0.16,0.47l0.521,0.3
	l0.021,0.24l0.379,0.2l0.03,0.23l0.38,0.2l0.021,0.24l0.25,0.09l0.04,0.36l0.25,0.09l0.039,0.47l0.121-0.01l0.17,0.46l0.119-0.01
	l0.041,0.35l0.119-0.01l0.021,0.24l0.12-0.02l0.199,0.82l0.121-0.01l0.189,0.69l0.12-0.01l0.03,0.24l0.119-0.01l0.19,0.69l0.12-0.01
	l0.05,0.47l0.12-0.01l0.061,0.59l0.119-0.01l0.061,0.59l0.119-0.01l0.471,2.22l0.12-0.01l0.03,0.35l0.119-0.01l0.221,0.93
	l0.119-0.01l0.07,0.71l0.12-0.01l0.07,0.71l0.12-0.01l0.1,0.94l0.12-0.01l0.28,2.72l-0.11,0.01l0.06,0.59l0.121-0.01l0.06,0.59
	l0.12-0.01c0.119,0.3-0.061,0.6-0.051,0.72l0.121-0.01l0.109,1.06l0.12-0.01l0.01,0.12l-0.12,0.01c-0.09,0.85,0.28,1.92,0.16,2.61
	l0.4,3.9l-0.11,0.02l0.12,1.18l-0.12,0.01c-0.01,0.15,0.21,0.18,0.17,0.46l-0.12,0.01l0.1,0.95L59.7,83.46l0.18,0.58l-0.12,0.01
	l0.11,1.06l-0.12,0.01l0.101,0.95l-0.111,0.01l0.061,0.59l-0.119,0.01l0.09,0.83l-0.121,0.01l0.15,0.34l-0.119,0.02l0.1,0.94
	l-0.12,0.01l0.09,0.83l-0.12,0.01l0.061,0.59l-0.11,0.02l0.021,0.23l-0.121,0.01l-0.029,0.84l-0.221,0.14l0.021,0.24
	c-0.149,0.27-0.5,0.38-0.649,0.67c-0.25-0.06-1.131-0.01-1.41,0.15l0.01,0.12l-0.24,0.02l0.01,0.12l-0.71,0.07l0.021,0.12
	C55.69,93.25,55.229,92.97,54.83,92.93z"/>
<path fill="#024B78" d="M65.894,25.817c0.17,0.159,0.256,0.371,0.256,0.637c0,0.266-0.086,0.475-0.256,0.627
	c-0.172,0.152-0.39,0.228-0.656,0.228h-3.382v10.659c0,0.253-0.092,0.469-0.275,0.646c-0.184,0.178-0.415,0.266-0.693,0.266
	s-0.511-0.088-0.693-0.266c-0.185-0.177-0.276-0.393-0.276-0.646V27.309h-3.362c-0.267,0-0.484-0.079-0.655-0.238
	c-0.172-0.158-0.257-0.371-0.257-0.636c0-0.253,0.085-0.459,0.257-0.618c0.171-0.158,0.389-0.237,0.655-0.237h8.683
	C65.504,25.58,65.722,25.659,65.894,25.817z"/>
<path fill="#024B78" d="M81.112,35.707c-0.551,1.039-1.314,1.859-2.289,2.46c-0.977,0.602-2.078,0.903-3.307,0.903
	s-2.33-0.301-3.306-0.903s-1.739-1.422-2.29-2.46s-0.826-2.198-0.826-3.477s0.275-2.438,0.826-3.477s1.314-1.859,2.29-2.46
	s2.077-0.903,3.306-0.903s2.33,0.301,3.307,0.903c0.975,0.602,1.738,1.422,2.289,2.46s0.826,2.198,0.826,3.477
	S81.663,34.668,81.112,35.707z M79.411,29.655c-0.379-0.766-0.908-1.368-1.586-1.805s-1.447-0.656-2.309-0.656
	s-1.631,0.216-2.309,0.646c-0.678,0.431-1.206,1.029-1.586,1.795c-0.381,0.767-0.57,1.631-0.57,2.594c0,0.95,0.189,1.808,0.57,2.574
	c0.38,0.767,0.908,1.368,1.586,1.805s1.447,0.655,2.309,0.655s1.631-0.218,2.309-0.655s1.207-1.039,1.586-1.805
	c0.381-0.766,0.57-1.625,0.57-2.574C79.981,31.28,79.792,30.422,79.411,29.655z"/>
<path fill="#024B78" d="M93.415,26.122c0.569,0.361,1.022,0.852,1.358,1.472c0.335,0.621,0.503,1.305,0.503,2.052
	s-0.168,1.438-0.503,2.071c-0.336,0.634-0.789,1.134-1.358,1.501c-0.57,0.368-1.191,0.551-1.862,0.551H87.98v4.199
	c0,0.253-0.082,0.469-0.247,0.646c-0.164,0.178-0.373,0.266-0.627,0.266c-0.266,0-0.478-0.085-0.636-0.256
	c-0.159-0.171-0.238-0.39-0.238-0.656V26.492c0-0.253,0.089-0.468,0.267-0.646c0.177-0.177,0.393-0.266,0.646-0.266h4.408
	C92.224,25.58,92.845,25.76,93.415,26.122z M92.503,31.708c0.291-0.222,0.522-0.516,0.693-0.884c0.171-0.367,0.257-0.76,0.257-1.178
	c0-0.646-0.188-1.194-0.561-1.644c-0.374-0.45-0.82-0.674-1.34-0.674H87.98v4.712h3.572C91.895,32.04,92.211,31.929,92.503,31.708z"
	/>
<path fill="#024B78" d="M106.333,31.528c-0.949-0.703-1.443-0.665-2.241-0.038c-0.912,0.722-1.805,1.539-2.812,2.128
	c-1.254,0.741-2.622-0.988-1.102-1.786c0.475-0.247,1.918-1.121,2.887-1.805c1.653-1.178,2.926-0.931,4.294,0.057
	c2.432,1.748,5.072,4.046,7.713,5.415c1.234,0.627,0.228,2.622-1.235,1.899C111.539,36.258,108.537,33.162,106.333,31.528z"/>
</svg>
