<?xml version="1.0" encoding="utf-8"?>
<!-- Generator: Adobe Illustrator 15.0.0, SVG Export Plug-In  -->
<!DOCTYPE svg PUBLIC "-//W3C//DTD SVG 1.1//EN" "http://www.w3.org/Graphics/SVG/1.1/DTD/svg11.dtd" [
	<!ENTITY ns_flows "http://ns.adobe.com/Flows/1.0/">
]>
<svg version="1.1"
	 xmlns="http://www.w3.org/2000/svg" xmlns:xlink="http://www.w3.org/1999/xlink" xmlns:a="http://ns.adobe.com/AdobeSVGViewerExtensions/3.0/"
	 x="0px" y="0px" width="451px" height="93px" viewBox="0 0 451 93" enable-background="new 0 0 451 93" xml:space="preserve">
<defs>
</defs>
<path fill-rule="evenodd" clip-rule="evenodd" fill="#014C69" d="M3,48C3,23.15,24.04,3,50,3s47,20.15,47,45c0,24.85-21.04,45-47,45
	S3,72.85,3,48z"/>
<path fill-rule="evenodd" clip-rule="evenodd" fill="#014C69" d="M62,48c0-24.85,21.04-45,47-45s47,20.15,47,45
	c0,24.85-21.04,45-47,45S62,72.85,62,48z"/>
<path fill-rule="evenodd" clip-rule="evenodd" fill="#014C69" d="M121,48c0-24.85,21.04-45,47-45s47,20.15,47,45
	c0,24.85-21.04,45-47,45S121,72.85,121,48z"/>
<path fill-rule="evenodd" clip-rule="evenodd" fill="#014C69" d="M180,48c0-24.85,21.04-45,47-45s47,20.15,47,45
	c0,24.85-21.04,45-47,45S180,72.85,180,48z"/>
<path fill-rule="evenodd" clip-rule="evenodd" fill="#014C69" d="M239,48c0-24.85,21.04-45,47-45s47,20.15,47,45
	c0,24.85-21.04,45-47,45S239,72.85,239,48z"/>
<path fill-rule="evenodd" clip-rule="evenodd" fill="#014C69" d="M298,48c0-24.85,21.04-45,47-45s47,20.15,47,45
	c0,24.85-21.04,45-47,45S298,72.85,298,48z"/>
<path fill-rule="evenodd" clip-rule="evenodd" fill="#014C69" d="M357,48c0-24.85,21.04-45,47-45s47,20.15,47,45
	c0,24.85-21.04,45-47,45S357,72.85,357,48z"/>
<path fill-rule="evenodd" clip-rule="evenodd" fill="#5CAADF" d="M0,45C0,20.15,21.04,0,47,0s47,20.15,47,45c0,24.85-21.04,45-47,45
	S0,69.85,0,45z"/>
<path fill-rule="evenodd" clip-rule="evenodd" fill="#5CAADF" d="M59,45c0-24.85,21.04-45,47-45s47,20.15,47,45
	c0,24.85-21.04,45-47,45S59,69.85,59,45z"/>
<path fill-rule="evenodd" clip-rule="evenodd" fill="#5CAADF" d="M118,45c0-24.85,21.04-45,47-45s47,20.15,47,45
	c0,24.85-21.04,45-47,45S118,69.85,118,45z"/>
<path fill-rule="evenodd" clip-rule="evenodd" fill="#5CAADF" d="M177,45c0-24.85,21.04-45,47-45s47,20.15,47,45
	c0,24.85-21.04,45-47,45S177,69.85,177,45z"/>
<path fill-rule="evenodd" clip-rule="evenodd" fill="#5CAADF" d="M236,45c0-24.85,21.04-45,47-45s47,20.15,47,45
	c0,24.85-21.04,45-47,45S236,69.85,236,45z"/>
<path fill-rule="evenodd" clip-rule="evenodd" fill="#5CAADF" d="M295,45c0-24.85,21.04-45,47-45s47,20.15,47,45
	c0,24.85-21.04,45-47,45S295,69.85,295,45z"/>
<path fill-rule="evenodd" clip-rule="evenodd" fill="#5CAADF" d="M354,45c0-24.85,21.04-45,47-45s47,20.15,47,45
	c0,24.85-21.04,45-47,45S354,69.85,354,45z"/>
<path fill="#FFFFFF" d="M49.964,51.168c1.008,0.7,3.332,2.548,3.976,3.053L52.008,56.6c-0.448-0.56-1.231-1.399-2.044-2.184v5.964
	h-3.22v-5.628c-1.092,1.568-2.353,2.969-3.557,3.948c-0.504-0.728-1.455-1.82-2.155-2.353c1.819-1.203,3.752-3.304,5.04-5.404
	h-4.256v-2.799h4.928v-2.156h-5.012v-2.744h2.575c-0.111-0.924-0.447-2.128-0.84-3.08l1.708-0.392H42.04v-2.716h4.704v-2.548h3.22
	v2.548h4.648v2.716h-2.885l1.624,0.308c-0.504,1.204-0.951,2.324-1.344,3.164h2.828v2.744h-4.872v2.156h4.62v2.799h-4.62V51.168z
	 M46.1,39.772c0.477,0.952,0.841,2.24,0.952,3.08l-1.399,0.392h5.487l-1.848-0.392c0.364-0.84,0.812-2.128,1.036-3.08H46.1z
	 M67.548,46.576h-2.66v13.691h-3.22V46.576h-2.856c-0.027,4.172-0.615,10.08-4.312,13.916c-0.42-0.729-1.624-1.876-2.38-2.269
	c3.22-3.415,3.556-8.176,3.556-12.04v-9.688l1.933,0.532c2.659-0.644,5.432-1.54,7.14-2.464L67.408,37
	c-2.464,1.092-5.656,1.96-8.597,2.576v3.92h8.736V46.576z"/>
<path fill="#FFFFFF" d="M96.473,56.46v3.08H71.244v-3.08h10.948v-2.239h-8.12v-3.025h8.12v-1.764h-2.1v-5.375h-2.576
	c-0.448,2.296-1.624,4.592-4.396,6.131c-0.42-0.615-1.596-1.875-2.184-2.323c2.072-1.064,2.996-2.408,3.416-3.808h-2.828v-2.94
	h3.164v-2.94h-2.212v-2.912h12.712v2.912H83.2v2.94h2.632v2.94H83.2v4.9h2.408v2.239H93.7v3.025h-8.092v2.239H96.473z
	 M80.093,41.116v-2.94H77.74v2.94H80.093z M90.061,45.344h-3.052V35.88h3.052V45.344z M95.269,46.548c0,1.54-0.28,2.324-1.345,2.8
	c-1.008,0.448-2.436,0.532-4.396,0.532c-0.14-0.868-0.588-2.128-0.98-2.94c1.261,0.056,2.604,0.056,3.024,0.028
	c0.392-0.028,0.532-0.112,0.532-0.476v-11.9h3.164V46.548z"/>
<path fill="#FFFFFF" d="M106.412,38.288h14.112c0.812,0,1.987-0.028,2.464-0.056c-0.028,0.644-0.084,1.764-0.084,2.576v14.504
	c0,0.979,0.056,2.463,0.112,3.304h-4.061c0.028-0.448,0.028-0.925,0.028-1.456h-12.769c-1.092,0-2.688,0.084-3.611,0.168v-4.004
	c0.979,0.084,2.239,0.168,3.5,0.168h12.907V41.9H106.44c-1.176,0-2.688,0.056-3.473,0.112V38.12
	C104.004,38.232,105.46,38.288,106.412,38.288z"/>
<path fill="#FFFFFF" d="M134.805,38.204h15.399c0.7,0,1.765,0,2.772-0.056c-0.056,0.84-0.056,1.876-0.056,2.716v13.72
	c0,1.092,0.056,3.78,0.056,3.892h-3.864c0-0.056,0.028-0.7,0.028-1.512h-13.496c0.028,0.784,0.028,1.428,0.028,1.512h-3.864
	c0-0.14,0.084-2.575,0.084-3.919V40.864c0-0.784,0-1.932-0.056-2.716C132.984,38.176,134.049,38.204,134.805,38.204z M135.645,53.38
	h13.524V41.76h-13.524V53.38z"/>
<path fill="#FFFFFF" d="M169.86,35.852h4.452c-0.168,0.868-0.225,2.408-0.225,3.304v3.052h6.301c1.288,0,2.464-0.112,3.052-0.168
	v3.808c-0.588-0.028-1.96-0.112-3.08-0.112h-6.3c-0.168,5.628-1.933,10.22-7.98,13.833l-3.472-2.576
	c5.488-2.492,7.364-6.523,7.588-11.256h-7.14c-1.232,0-2.353,0.084-3.221,0.14v-3.864c0.841,0.084,1.988,0.196,3.108,0.196h7.28
	v-3.08C170.225,38.176,170.112,36.72,169.86,35.852z"/>
<path fill="#FFFFFF" d="M200.745,37.7v2.156h4.872c1.176,0,1.848-0.14,2.323-0.308l2.437,1.484c-0.225,0.616-0.448,1.68-0.561,2.24
	c-0.476,2.688-1.231,5.376-2.604,7.923c-2.24,4.145-6.44,7.112-11.424,8.4l-2.912-3.359c1.26-0.225,2.8-0.645,3.948-1.092
	c2.323-0.869,4.787-2.521,6.355-4.789c1.428-2.043,2.156-4.704,2.492-7.195h-13.888v4.088c0,0.645,0.027,1.512,0.084,2.072h-3.864
	c0.084-0.7,0.14-1.596,0.14-2.352v-4.844c0-0.616-0.027-1.736-0.14-2.408c0.952,0.112,1.792,0.14,2.855,0.14h5.992V37.7
	c0-0.784-0.027-1.372-0.224-2.576h4.312C200.801,36.328,200.745,36.916,200.745,37.7z"/>
<path fill="#FFFFFF" d="M226.616,42.096c2.884-1.792,6.076-4.592,7.896-6.804l3.023,2.884c-2.128,2.1-4.815,4.284-7.531,6.076
	v11.313c0,1.231,0.056,2.968,0.252,3.668h-4.425c0.112-0.673,0.196-2.437,0.196-3.668v-8.96c-2.884,1.512-6.439,3.024-9.884,4.033
	l-1.764-3.529C219.393,45.82,223.509,44,226.616,42.096z"/>
<path fill="#FFFFFF" d="M245.433,50.271c0.784-2.407,0.813-7.699,0.813-11.087c0-1.12-0.084-1.876-0.252-2.576h4.115
	c-0.027,0.14-0.195,1.372-0.195,2.548c0,3.304-0.084,9.212-0.841,12.039c-0.84,3.164-2.604,5.908-4.983,8.037l-3.416-2.269
	C243.137,55.229,244.648,52.652,245.433,50.271z M253.86,55.313V38.988c0-1.26-0.195-2.324-0.224-2.408h4.172
	c-0.028,0.084-0.196,1.176-0.196,2.436V53.66c2.269-0.98,5.04-3.191,6.916-5.908l2.156,3.08c-2.324,3.023-6.355,6.048-9.492,7.644
	c-0.616,0.336-0.952,0.616-1.204,0.841l-2.352-1.933C253.749,56.852,253.86,56.068,253.86,55.313z"/>
<path fill="#FFFFFF" d="M289.813,40.752c-0.952,2.184-2.521,5.18-4.396,7.7c2.772,2.407,6.16,5.991,7.813,8.008l-3.192,2.772
	c-1.819-2.521-4.424-5.377-7.056-7.924c-2.968,3.135-6.692,6.047-10.528,7.867l-2.884-3.023c4.508-1.68,8.848-5.096,11.48-8.036
	c1.848-2.1,3.556-4.872,4.172-6.86h-9.492c-1.176,0-2.716,0.168-3.304,0.196v-3.976c0.756,0.112,2.464,0.196,3.304,0.196h9.884
	c1.204,0,2.324-0.168,2.884-0.364l2.296,1.708C290.568,39.324,290.064,40.192,289.813,40.752z"/>
<path fill="#FFFFFF" d="M302.666,41.144c0,3.444-0.532,8.316-3.192,11.48c-0.477-0.588-1.764-1.681-2.408-2.017
	c2.296-2.771,2.548-6.691,2.548-9.52v-4.2h11.9c-0.084-0.868-0.141-1.736-0.168-2.604h3.107c0.028,0.868,0.084,1.764,0.168,2.604
	h2.996c-0.728-0.392-1.54-0.756-2.268-1.036l1.652-1.82c1.315,0.392,3.023,1.148,3.892,1.848l-0.84,1.008h2.576v2.632h-7.616
	c0.28,1.596,0.7,3.08,1.147,4.396c0.7-1.148,1.288-2.38,1.708-3.696l3.08,0.728c-0.784,2.268-1.903,4.312-3.248,6.132
	c0.756,1.12,1.54,1.764,2.324,1.764c0.616-0.027,0.84-0.951,0.98-3.36c0.699,0.616,1.735,1.204,2.52,1.456
	c-0.476,3.976-1.456,4.9-3.668,4.9c-1.596,0-3.024-0.896-4.228-2.408c-0.841,0.813-1.708,1.541-2.633,2.156
	c-0.336-0.477-1.035-1.204-1.651-1.764v0.504h-1.792c1.483,0.813,3.136,2.072,3.976,3.052l-2.296,1.96
	c-0.812-1.064-2.632-2.492-4.172-3.416l1.904-1.596h-5.544V44.28h7.924v4.592c0.952-0.616,1.819-1.345,2.632-2.156
	c-0.924-2.016-1.652-4.48-2.1-7.196h-9.212V41.144z M297.317,58c1.652-1.288,2.856-3.275,3.416-5.348l2.968,1.063
	c-0.644,2.324-1.735,4.648-3.64,6.132L297.317,58z M311.541,42.936h-8.231v-2.128h8.231V42.936z M313.109,57.104
	c1.064,0,1.26-0.279,1.4-2.492c0.615,0.505,2.044,0.98,2.912,1.177c-0.364,3.444-1.288,4.284-4.004,4.284h-4.48
	c-3.612,0-4.452-0.896-4.452-3.78V52.68h3.304v3.584c0,0.756,0.225,0.84,1.513,0.84H313.109z M308.63,46.408h-2.549v1.764h2.549
	V46.408z M319.018,52.232c1.82,1.651,3.752,4.004,4.479,5.823l-3.023,1.513c-0.616-1.709-2.437-4.172-4.256-5.937L319.018,52.232z"
	/>
<path fill="#FFFFFF" d="M343.993,52.624c2.323,1.96,5.655,3.668,8.96,4.536c-0.756,0.672-1.708,1.988-2.212,2.8
	c-3.389-1.176-6.748-3.248-9.269-5.823v6.271h-3.388v-6.271c-2.492,2.631-5.88,4.787-9.24,5.991
	c-0.476-0.784-1.456-2.016-2.184-2.688c3.332-0.924,6.748-2.744,9.044-4.815h-8.316v-2.912h10.696v-2.407
	c-0.644,0.476-1.372,0.896-2.128,1.287c-0.393-0.644-1.652-1.988-2.324-2.492c3.052-1.176,4.704-3.08,5.516-5.908h-3.611v-2.94
	h4.144c0.084-0.924,0.112-1.876,0.112-2.94l3.36-0.056c-0.028,1.064-0.112,2.044-0.196,2.996h5.264V44c0,0.476,0,0.728,0.084,0.84
	c0.084,0.084,0.225,0.14,0.364,0.14h0.56c0.141,0,0.309-0.028,0.42-0.084c0.084-0.084,0.196-0.252,0.28-0.7
	c0.028-0.42,0.056-1.4,0.084-2.632c0.645,0.588,1.904,1.204,2.828,1.54c-0.084,1.176-0.196,2.548-0.448,3.108
	c-0.224,0.588-0.615,0.979-1.12,1.231c-0.447,0.225-1.176,0.309-1.708,0.309h-1.735c-0.729,0-1.568-0.225-2.101-0.699
	c-0.531-0.533-0.756-1.148-0.756-3.025v-3.836h-2.52c-0.672,3.052-1.988,5.292-4.145,6.945h3.164v2.575h10.752v2.912H343.993z
	 M331.561,42.46c-1.035-0.616-3.191-1.484-4.815-1.988l1.344-2.184c1.54,0.42,3.696,1.176,4.872,1.764L331.561,42.46z
	 M327.361,46.912c1.456-1.12,3.5-3.052,5.319-4.928l1.988,1.988c-1.568,1.764-3.304,3.528-4.872,5.096L327.361,46.912z
	 M333.772,38.568c-1.119-0.616-3.304-1.484-4.928-1.988l1.232-2.156c1.596,0.42,3.808,1.176,4.956,1.736L333.772,38.568z"/>
<path fill="#FFFFFF" d="M367.737,42.656c-0.532,3.024-1.288,5.74-2.296,8.148c1.231,1.623,2.24,3.191,2.884,4.535l-2.66,2.268
	c-0.447-1.008-1.092-2.184-1.903-3.443c-1.484,2.464-3.389,4.479-5.74,6.048c-0.393-0.672-1.54-1.988-2.24-2.604
	c2.604-1.512,4.536-3.668,5.964-6.355c-1.483-1.988-3.136-3.977-4.676-5.684l2.38-1.876c1.204,1.288,2.464,2.716,3.696,4.201
	c0.588-1.736,1.036-3.612,1.344-5.657L367.737,42.656z M382.186,43.692h-2.996v12.6c0,1.876-0.336,2.856-1.4,3.388
	c-1.063,0.588-2.716,0.729-5.04,0.729c-0.111-0.98-0.588-2.576-1.063-3.584c1.567,0.084,3.08,0.056,3.556,0.056
	c0.504,0,0.672-0.14,0.672-0.588v-12.6h-7.027v-2.016h-12.32v-3.08h4.872v-4.284h3.191v4.284h5.181V40.5h6.104v-6.216h3.276V40.5
	h2.996V43.692z M371.266,45.904c1.315,1.848,2.659,4.256,3.107,5.908l-2.884,1.483c-0.42-1.651-1.624-4.2-2.884-6.104
	L371.266,45.904z"/>
<path fill="#FFFFFF" d="M409.373,51.168c0,1.4-0.28,2.072-1.288,2.492c-0.952,0.393-2.212,0.42-3.725,0.42
	c2.128,1.092,4.732,1.988,7.504,2.492c-0.699,0.728-1.651,2.071-2.1,2.939c-3.584-0.896-6.748-2.66-9.072-4.535v5.487h-3.584v-5.571
	c-2.548,2.211-5.796,3.863-9.296,4.815c-0.447-0.84-1.372-2.128-2.071-2.8c4.647-0.924,8.987-3.024,11.367-5.74v-1.96h-5.348v4.956
	h-3.528V46.38h8.876v-1.344H386.44V42.18h5.937c-0.28-0.812-0.84-1.96-1.428-2.94h-0.477c-0.728,1.092-1.54,2.044-2.324,2.8
	c-0.644-0.532-1.987-1.4-2.771-1.82c1.764-1.484,3.388-3.836,4.312-6.132l3.137,0.868c-0.196,0.476-0.421,1.008-0.673,1.512h6.049
	v2.296c1.147-1.316,2.071-2.996,2.659-4.676l3.276,0.812c-0.196,0.504-0.42,1.036-0.672,1.568h7.784v2.772h-4.564
	c0.42,0.7,0.784,1.4,0.98,1.932l-2.969,0.952c-0.224-0.756-0.812-1.876-1.428-2.884h-1.344c-0.393,0.588-0.813,1.148-1.232,1.624
	v1.316h10.08v2.856h-10.08v1.344h8.681V51.168z M397.108,42.18v-1.484h0.477c-0.309-0.196-0.588-0.364-0.84-0.504
	c0.363-0.28,0.699-0.616,1.035-0.952h-3.443c0.392,0.728,0.756,1.428,0.952,1.96l-2.521,0.98H397.108z M400.692,51.672
	c0.925,0.813,2.101,1.596,3.5,2.324c-0.224-0.813-0.699-1.792-1.063-2.492c0.896,0.084,2.044,0.057,2.352,0.057
	c0.336,0,0.448-0.084,0.448-0.393v-1.96h-5.236V51.672z"/>
</svg>
